<svg width="36" height="36" viewBox="0 0 36 36" fill="none" xmlns="http://www.w3.org/2000/svg">
<path d="M16.0007 17V18H17.0007V17H16.0007Z" fill="#FEC859"/>
<path d="M11.0007 17V18H12.0007V17H11.0007Z" fill="#FEC859"/>
<path d="M4.00073 22V23H5.00073V22H4.00073Z" fill="#FEC859"/>
<path d="M12.0007 17V18H13.0007V17H12.0007Z" fill="#FEC859"/>
<path d="M12.0007 18V19H13.0007V18H12.0007Z" fill="#FEC859"/>
<path d="M14.0007 17V18H15.0007V17H14.0007Z" fill="#FEC859"/>
<path d="M13.0007 17V18H14.0007V17H13.0007Z" fill="#FEC859"/>
<path d="M15.0007 17V18H16.0007V17H15.0007Z" fill="#FEC859"/>
<path d="M17.0007 17V18H18.0007V17H17.0007Z" fill="#FEC859"/>
<path d="M16.0007 18V19H17.0007V18H16.0007Z" fill="#FEC859"/>
<path d="M14.0007 18V19H15.0007V18H14.0007Z" fill="#FEC859"/>
<path d="M13.0007 18V19H14.0007V18H13.0007Z" fill="#FEC859"/>
<path d="M15.0007 18V19H16.0007V18H15.0007Z" fill="#FEC859"/>
<path d="M10.0007 22V23H11.0007V22H10.0007Z" fill="#FEC859"/>
<path d="M8.00073 22V23H9.00073V22H8.00073Z" fill="#FEC859"/>
<path d="M7.00073 22V23H8.00073V22H7.00073Z" fill="#FEC859"/>
<path d="M9.00073 22V23H10.0007V22H9.00073Z" fill="#FEC859"/>
<path d="M10.0007 23V24H11.0007V23H10.0007Z" fill="#FEC859"/>
<path d="M8.00073 23V24H9.00073V23H8.00073Z" fill="#FEC859"/>
<path d="M7.00073 23V24H8.00073V23H7.00073Z" fill="#FEC859"/>
<path d="M9.00073 23V24H10.0007V23H9.00073Z" fill="#FEC859"/>
<path d="M10.0007 24V25H11.0007V24H10.0007Z" fill="#FEC859"/>
<path d="M12.0007 25V26H13.0007V25H12.0007Z" fill="#FEC859"/>
<path d="M4.00073 28V29H5.00073V28H4.00073Z" fill="#FEC859"/>
<path d="M4.00073 28V29H5.00073V28H4.00073Z" fill="#FEC859"/>
<path d="M5.00073 29V30H6.00073V29H5.00073Z" fill="#FEC859"/>
<path d="M8.00073 24V25H9.00073V24H8.00073Z" fill="#FEC859"/>
<path d="M6.00073 22V23H7.00073V22H6.00073Z" fill="#FEC859"/>
<path d="M6.00073 23V24H7.00073V23H6.00073Z" fill="#FEC859"/>
<path d="M5.00073 23V24H6.00073V23H5.00073Z" fill="#FEC859"/>
<path d="M6.00073 24V25H7.00073V24H6.00073Z" fill="#FEC859"/>
<path d="M7.00073 24V25H8.00073V24H7.00073Z" fill="#FEC859"/>
<path d="M9.00073 24V25H10.0007V24H9.00073Z" fill="#FEC859"/>
<path d="M14.0007 30V31H15.0007V30H14.0007Z" fill="#FEC859"/>
<path d="M12.0007 30V31H13.0007V30H12.0007Z" fill="#FEC859"/>
<path d="M10.0007 30V31H11.0007V30H10.0007Z" fill="#FEC859"/>
<path d="M11.0007 30V31H12.0007V30H11.0007Z" fill="#FEC859"/>
<path d="M13.0007 30V31H14.0007V30H13.0007Z" fill="#FEC859"/>
<path d="M14.0007 31V32H15.0007V31H14.0007Z" fill="#FEC859"/>
<path d="M12.0007 31V32H13.0007V31H12.0007Z" fill="#FEC859"/>
<path d="M10.0007 31V32H11.0007V31H10.0007Z" fill="#FEC859"/>
<path d="M11.0007 31V32H12.0007V31H11.0007Z" fill="#FEC859"/>
<path d="M13.0007 31V32H14.0007V31H13.0007Z" fill="#FEC859"/>
<path d="M15.0007 32V33H16.0007V32H15.0007Z" fill="#FEC859"/>
<path d="M13.0007 32V33H14.0007V32H13.0007Z" fill="#FEC859"/>
<path d="M11.0007 32V33H12.0007V32H11.0007Z" fill="#FEC859"/>
<path d="M12.0007 32V33H13.0007V32H12.0007Z" fill="#FEC859"/>
<path d="M13.0007 33V34H14.0007V33H13.0007Z" fill="#FEC859"/>
<path d="M12.0007 33V34H13.0007V33H12.0007Z" fill="#FEC859"/>
<path d="M11.0007 33V34H12.0007V33H11.0007Z" fill="#FEC859"/>
<path d="M14.0007 29V30H15.0007V29H14.0007Z" fill="#FEC859"/>
<path d="M13.0007 28V29H14.0007V28H13.0007Z" fill="#FEC859"/>
<path d="M9.00073 31V32H10.0007V31H9.00073Z" fill="#FEC859"/>
<path d="M10.0007 29V30H11.0007V29H10.0007Z" fill="#FEC859"/>
<path d="M9.00073 30V31H10.0007V30H9.00073Z" fill="#FEC859"/>
<path d="M9.00073 32V33H10.0007V32H9.00073Z" fill="#FEC859"/>
<path d="M6.00073 32V33H7.00073V32H6.00073Z" fill="#FEC859"/>
<path d="M5.00073 33V34H6.00073V33H5.00073Z" fill="#FEC859"/>
<path d="M10.0007 32V33H11.0007V32H10.0007Z" fill="#FEC859"/>
<path d="M10.0007 33V34H11.0007V33H10.0007Z" fill="#FEC859"/>
<path d="M14.0007 32V33H15.0007V32H14.0007Z" fill="#FEC859"/>
<path d="M11.0007 34V35H12.0007V34H11.0007Z" fill="#FEC859"/>
<path d="M13.0007 35V36H14.0007V35H13.0007Z" fill="#FEC859"/>
<path d="M12.0007 35V36H13.0007V35H12.0007Z" fill="#FEC859"/>
<path d="M8.00073 35V36H9.00073V35H8.00073Z" fill="#FEC859"/>
<path d="M7.00073 35V36H8.00073V35H7.00073Z" fill="#FEC859"/>
<path d="M14.0007 34V35H15.0007V34H14.0007Z" fill="#FEC859"/>
<path d="M10.0007 31V32H11.0007V31H10.0007Z" fill="#FEC859"/>
<path d="M9.00073 32V33H10.0007V32H9.00073Z" fill="#FEC859"/>
<path d="M14.0007 19V20H15.0007V19H14.0007Z" fill="#FEC859"/>
<path d="M13.0007 19V20H14.0007V19H13.0007Z" fill="#FEC859"/>
<path d="M15.0007 19V20H16.0007V19H15.0007Z" fill="#FEC859"/>
<path d="M16.0007 19V20H17.0007V19H16.0007Z" fill="#FEC859"/>
<path d="M17.0007 19V20H18.0007V19H17.0007Z" fill="#FEC859"/>
<path d="M16.0007 20V21H17.0007V20H16.0007Z" fill="#FEC859"/>
<path d="M17.0007 20V21H18.0007V20H17.0007Z" fill="#FEC859"/>
<path d="M15.0007 20V21H16.0007V20H15.0007Z" fill="#FEC859"/>
<path d="M17.0007 18V19H18.0007V18H17.0007Z" fill="#FEC859"/>
<path d="M19.0007 23V24H20.0007V23H19.0007Z" fill="#FEC859"/>
<path d="M17.0007 23V24H18.0007V23H17.0007Z" fill="#FEC859"/>
<path d="M16.0007 23V24H17.0007V23H16.0007Z" fill="#FEC859"/>
<path d="M18.0007 23V24H19.0007V23H18.0007Z" fill="#FEC859"/>
<path d="M20.0007 23V24H21.0007V23H20.0007Z" fill="#FEC859"/>
<path d="M21.0007 23V24H22.0007V23H21.0007Z" fill="#FEC859"/>
<path d="M14.0007 16V17H15.0007V16H14.0007Z" fill="#FEC859"/>
<path d="M12.0007 16V17H13.0007V16H12.0007Z" fill="#FEC859"/>
<path d="M11.0007 16V17H12.0007V16H11.0007Z" fill="#FEC859"/>
<path d="M9.00073 21V22H10.0007V21H9.00073Z" fill="#FEC859"/>
<path d="M10.0007 20V21H11.0007V20H10.0007Z" fill="#FEC859"/>
<path d="M9.00073 20V21H10.0007V20H9.00073Z" fill="#FEC859"/>
<path d="M5.00073 21V22H6.00073V21H5.00073Z" fill="#FEC859"/>
<path d="M6.00073 20V21H7.00073V20H6.00073Z" fill="#FEC859"/>
<path d="M5.00073 20V21H6.00073V20H5.00073Z" fill="#FEC859"/>
<path d="M13.0007 16V17H14.0007V16H13.0007Z" fill="#FEC859"/>
<path d="M8.00073 14V15H9.00073V14H8.00073Z" fill="#FEC859"/>
<path d="M6.00073 14V15H7.00073V14H6.00073Z" fill="#FEC859"/>
<path d="M5.00073 14V15H6.00073V14H5.00073Z" fill="#FEC859"/>
<path d="M7.00073 14V15H8.00073V14H7.00073Z" fill="#FEC859"/>
<path d="M9.00073 25V26H10.0007V25H9.00073Z" fill="#FEC859"/>
<path d="M7.00073 25V26H8.00073V25H7.00073Z" fill="#FEC859"/>
<path d="M6.00073 25V26H7.00073V25H6.00073Z" fill="#FEC859"/>
<path d="M8.00073 25V26H9.00073V25H8.00073Z" fill="#FEC859"/>
<path d="M9.00073 26V27H10.0007V26H9.00073Z" fill="#FEC859"/>
<path d="M7.00073 26V27H8.00073V26H7.00073Z" fill="#FEC859"/>
<path d="M8.00073 26V27H9.00073V26H8.00073Z" fill="#FEC859"/>
<path d="M12.0007 28V29H13.0007V28H12.0007Z" fill="#FEC859"/>
<path d="M13.0007 29V30H14.0007V29H13.0007Z" fill="#FEC859"/>
<path d="M11.0007 29V30H12.0007V29H11.0007Z" fill="#FEC859"/>
<path d="M12.0007 29V30H13.0007V29H12.0007Z" fill="#FEC859"/>
<path d="M7.00073 30V31H8.00073V30H7.00073Z" fill="#FEC859"/>
<path d="M5.00073 30V31H6.00073V30H5.00073Z" fill="#FEC859"/>
<path d="M6.00073 30V31H7.00073V30H6.00073Z" fill="#FEC859"/>
<path d="M19.0007 24V25H20.0007V24H19.0007Z" fill="#FEC859"/>
<path d="M17.0007 24V25H18.0007V24H17.0007Z" fill="#FEC859"/>
<path d="M16.0007 24V25H17.0007V24H16.0007Z" fill="#FEC859"/>
<path d="M18.0007 24V25H19.0007V24H18.0007Z" fill="#FEC859"/>
<path d="M18.0007 25V26H19.0007V25H18.0007Z" fill="#FEC859"/>
<path d="M16.0007 25V26H17.0007V25H16.0007Z" fill="#FEC859"/>
<path d="M15.0007 24V25H16.0007V24H15.0007Z" fill="#FEC859"/>
<path d="M15.0007 25V26H16.0007V25H15.0007Z" fill="#FEC859"/>
<path d="M17.0007 25V26H18.0007V25H17.0007Z" fill="#FEC859"/>
<path d="M20.0007 29V30H21.0007V29H20.0007Z" fill="#FEC859"/>
<path d="M22.0007 29V30H23.0007V29H22.0007Z" fill="#FEC859"/>
<path d="M22.0007 30V31H23.0007V30H22.0007Z" fill="#FEC859"/>
<path d="M20.0007 30V31H21.0007V30H20.0007Z" fill="#FEC859"/>
<path d="M21.0007 30V31H22.0007V30H21.0007Z" fill="#FEC859"/>
<path d="M16.0007 26V27H17.0007V26H16.0007Z" fill="#FEC859"/>
<path d="M15.0007 26V27H16.0007V26H15.0007Z" fill="#FEC859"/>
<path d="M20.0007 31V32H21.0007V31H20.0007Z" fill="#FEC859"/>
<path d="M21.0007 32V33H22.0007V32H21.0007Z" fill="#FEC859"/>
<path d="M24.0007 33V34H25.0007V33H24.0007Z" fill="#FEC859"/>
<path d="M21.0007 34V35H22.0007V34H21.0007Z" fill="#FEC859"/>
<path d="M18.0007 34V35H19.0007V34H18.0007Z" fill="#FEC859"/>
<path d="M17.0007 35V36H18.0007V35H17.0007Z" fill="#FEC859"/>
<path d="M22.0007 35V36H23.0007V35H22.0007Z" fill="#FEC859"/>
<path d="M23.0007 35V36H24.0007V35H23.0007Z" fill="#FEC859"/>
<path d="M20.0007 32V33H21.0007V32H20.0007Z" fill="#FEC859"/>
<path d="M17.0007 26V27H18.0007V26H17.0007Z" fill="#FEC859"/>
<path d="M19.0007 30V31H20.0007V30H19.0007Z" fill="#FEC859"/>
<path d="M18.0007 31V32H19.0007V31H18.0007Z" fill="#FEC859"/>
<path d="M19.0007 31V32H20.0007V31H19.0007Z" fill="#FEC859"/>
<path d="M17.0007 27V28H18.0007V27H17.0007Z" fill="#FEC859"/>
<path d="M19.0007 26V27H20.0007V26H19.0007Z" fill="#FEC859"/>
<path d="M21.0007 28V29H22.0007V28H21.0007Z" fill="#FEC859"/>
<path d="M16.0007 27V28H17.0007V27H16.0007Z" fill="#FEC859"/>
<path d="M28.0007 14V15H29.0007V14H28.0007Z" fill="#FEC859"/>
<path d="M27.0007 14V15H28.0007V14H27.0007Z" fill="#FEC859"/>
<path d="M15.0007 16V17H16.0007V16H15.0007Z" fill="#FEC859"/>
<path d="M8.00073 5V6H9.00073V5H8.00073Z" fill="#FEC859"/>
<path d="M7.00073 5V6H8.00073V5H7.00073Z" fill="#FEC859"/>
<path d="M9.00073 5V6H10.0007V5H9.00073Z" fill="#FEC859"/>
<path d="M8.00073 6V7H9.00073V6H8.00073Z" fill="#FEC859"/>
<path d="M8.00073 4V5H9.00073V4H8.00073Z" fill="#FEC859"/>
<path d="M6.00073 4V5H7.00073V4H6.00073Z" fill="#FEC859"/>
<path d="M7.00073 4V5H8.00073V4H7.00073Z" fill="#FEC859"/>
<path d="M9.00073 4V5H10.0007V4H9.00073Z" fill="#FEC859"/>
<path d="M23.0007 15V16H24.0007V15H23.0007Z" fill="#FEC859"/>
<path d="M21.0007 15V16H22.0007V15H21.0007Z" fill="#FEC859"/>
<path d="M20.0007 15V16H21.0007V15H20.0007Z" fill="#FEC859"/>
<path d="M22.0007 15V16H23.0007V15H22.0007Z" fill="#FEC859"/>
<path d="M24.0007 15V16H25.0007V15H24.0007Z" fill="#FEC859"/>
<path d="M27.0007 20V21H28.0007V20H27.0007Z" fill="#FEC859"/>
<path d="M25.0007 20V21H26.0007V20H25.0007Z" fill="#FEC859"/>
<path d="M24.0007 20V21H25.0007V20H24.0007Z" fill="#FEC859"/>
<path d="M26.0007 20V21H27.0007V20H26.0007Z" fill="#FEC859"/>
<path d="M28.0007 20V21H29.0007V20H28.0007Z" fill="#FEC859"/>
<path d="M26.0007 21V22H27.0007V21H26.0007Z" fill="#FEC859"/>
<path d="M24.0007 21V22H25.0007V21H24.0007Z" fill="#FEC859"/>
<path d="M25.0007 22V23H26.0007V22H25.0007Z" fill="#FEC859"/>
<path d="M24.0007 22V23H25.0007V22H24.0007Z" fill="#FEC859"/>
<path d="M24.0007 23V24H25.0007V23H24.0007Z" fill="#FEC859"/>
<path d="M23.0007 21V22H24.0007V21H23.0007Z" fill="#FEC859"/>
<path d="M25.0007 21V22H26.0007V21H25.0007Z" fill="#FEC859"/>
<path d="M27.0007 21V22H28.0007V21H27.0007Z" fill="#FEC859"/>
<path d="M28.0007 25V26H29.0007V25H28.0007Z" fill="#FEC859"/>
<path d="M29.0007 25V26H30.0007V25H29.0007Z" fill="#FEC859"/>
<path d="M27.0007 26V27H28.0007V26H27.0007Z" fill="#FEC859"/>
<path d="M26.0007 26V27H27.0007V26H26.0007Z" fill="#FEC859"/>
<path d="M28.0007 26V27H29.0007V26H28.0007Z" fill="#FEC859"/>
<path d="M28.0007 27V28H29.0007V27H28.0007Z" fill="#FEC859"/>
<path d="M28.0007 22V23H29.0007V22H28.0007Z" fill="#FEC859"/>
<path d="M23.0007 14V15H24.0007V14H23.0007Z" fill="#FEC859"/>
<path d="M21.0007 14V15H22.0007V14H21.0007Z" fill="#FEC859"/>
<path d="M20.0007 14V15H21.0007V14H20.0007Z" fill="#FEC859"/>
<path d="M22.0007 13V14H23.0007V13H22.0007Z" fill="#FEC859"/>
<path d="M21.0007 13V14H22.0007V13H21.0007Z" fill="#FEC859"/>
<path d="M35.0007 6V7H36.0007V6H35.0007Z" fill="#FEC859"/>
<path d="M35.0007 5V6H36.0007V5H35.0007Z" fill="#FEC859"/>
<path d="M34.0007 6V7H35.0007V6H34.0007Z" fill="#FEC859"/>
<path d="M8.00073 16V17H9.00073V16H8.00073Z" fill="#FEC859"/>
<path d="M7.00073 16V17H8.00073V16H7.00073Z" fill="#FEC859"/>
<path d="M7.00073 15V16H8.00073V15H7.00073Z" fill="#FEC859"/>
<path d="M6.00073 15V16H7.00073V15H6.00073Z" fill="#FEC859"/>
<path d="M22.0007 14V15H23.0007V14H22.0007Z" fill="#FEC859"/>
<path d="M34.0007 7V8H35.0007V7H34.0007Z" fill="#FEC859"/>
<path d="M33.0007 7V8H34.0007V7H33.0007Z" fill="#FEC859"/>
<path d="M35.0007 7V8H36.0007V7H35.0007Z" fill="#FEC859"/>
<path d="M35.0007 16V17H36.0007V16H35.0007Z" fill="#FEC859"/>
<path d="M35.0007 17V18H36.0007V17H35.0007Z" fill="#FEC859"/>
<path d="M33.0007 17V18H34.0007V17H33.0007Z" fill="#FEC859"/>
<path d="M35.0007 9V10H36.0007V9H35.0007Z" fill="#FEC859"/>
<path d="M35.0007 10V11H36.0007V10H35.0007Z" fill="#FEC859"/>
<path d="M23.0007 4V5H24.0007V4H23.0007Z" fill="#FEC859"/>
<path d="M22.0007 4V5H23.0007V4H22.0007Z" fill="#FEC859"/>
<path d="M24.0007 4V5H25.0007V4H24.0007Z" fill="#FEC859"/>
<path d="M20.0007 11V12H21.0007V11H20.0007Z" fill="#FEC859"/>
<path d="M19.0007 11V12H20.0007V11H19.0007Z" fill="#FEC859"/>
<path d="M21.0007 11V12H22.0007V11H21.0007Z" fill="#FEC859"/>
<path d="M22.0007 10V11H23.0007V10H22.0007Z" fill="#FEC859"/>
<path d="M23.0007 10V11H24.0007V10H23.0007Z" fill="#FEC859"/>
<path d="M23.0007 11V12H24.0007V11H23.0007Z" fill="#FEC859"/>
<path d="M24.0007 11V12H25.0007V11H24.0007Z" fill="#FEC859"/>
<path d="M24.0007 12V13H25.0007V12H24.0007Z" fill="#FEC859"/>
<path d="M25.0007 12V13H26.0007V12H25.0007Z" fill="#FEC859"/>
<path d="M29.0007 10V11H30.0007V10H29.0007Z" fill="#FEC859"/>
<path d="M30.0007 10V11H31.0007V10H30.0007Z" fill="#FEC859"/>
<path d="M33.0007 15V16H34.0007V15H33.0007Z" fill="#FEC859"/>
<path d="M34.0007 15V16H35.0007V15H34.0007Z" fill="#FEC859"/>
<path d="M33.0007 18V19H34.0007V18H33.0007Z" fill="#FEC859"/>
<path d="M28.0007 17V18H29.0007V17H28.0007Z" fill="#FEC859"/>
<path d="M27.0007 16V17H28.0007V16H27.0007Z" fill="#FEC859"/>
<path d="M30.0007 17V18H31.0007V17H30.0007Z" fill="#FEC859"/>
<path d="M34.0007 18V19H35.0007V18H34.0007Z" fill="#FEC859"/>
<path d="M34.0007 8V9H35.0007V8H34.0007Z" fill="#FEC859"/>
<path d="M35.0007 8V9H36.0007V8H35.0007Z" fill="#FEC859"/>
<path d="M29.0007 4V5H30.0007V4H29.0007Z" fill="#FEC859"/>
<path d="M30.0007 4V5H31.0007V4H30.0007Z" fill="#FEC859"/>
<path d="M29.0007 4V5H30.0007V4H29.0007Z" fill="#FEC859"/>
<path d="M30.0007 4V5H31.0007V4H30.0007Z" fill="#FEC859"/>
<path d="M22.0007 10V11H23.0007V10H22.0007Z" fill="#FEC859"/>
<path d="M23.0007 10V11H24.0007V10H23.0007Z" fill="#FEC859"/>
<path d="M19.0007 19V20H20.0007V19H19.0007Z" fill="#FEC859"/>
<path d="M18.0007 19V20H19.0007V19H18.0007Z" fill="#FEC859"/>
<path d="M20.0007 19V20H21.0007V19H20.0007Z" fill="#FEC859"/>
<path d="M21.0007 18V19H22.0007V18H21.0007Z" fill="#FEC859"/>
<path d="M21.0007 17V18H22.0007V17H21.0007Z" fill="#FEC859"/>
<path d="M20.0007 18V19H21.0007V18H20.0007Z" fill="#FEC859"/>
<path d="M22.0007 18V19H23.0007V18H22.0007Z" fill="#FEC859"/>
<path d="M20.0007 17V18H21.0007V17H20.0007Z" fill="#FEC859"/>
<path d="M22.0007 16V17H23.0007V16H22.0007Z" fill="#FEC859"/>
<path d="M21.0007 16V17H22.0007V16H21.0007Z" fill="#FEC859"/>
<path d="M23.0007 16V17H24.0007V16H23.0007Z" fill="#FEC859"/>
<path d="M26.0007 19V20H27.0007V19H26.0007Z" fill="#FEC859"/>
<path d="M25.0007 19V20H26.0007V19H25.0007Z" fill="#FEC859"/>
<path d="M24.0007 28V29H25.0007V28H24.0007Z" fill="#FEC859"/>
<path d="M23.0007 28V29H24.0007V28H23.0007Z" fill="#FEC859"/>
<path d="M23.0007 29V30H24.0007V29H23.0007Z" fill="#FEC859"/>
<path d="M24.0007 29V30H25.0007V29H24.0007Z" fill="#FEC859"/>
<path d="M29.0007 28V29H30.0007V28H29.0007Z" fill="#FEC859"/>
<path d="M27.0007 30V31H28.0007V30H27.0007Z" fill="#FEC859"/>
<path d="M28.0007 29V30H29.0007V29H28.0007Z" fill="#FEC859"/>
<path d="M28.0007 30V31H29.0007V30H28.0007Z" fill="#FEC859"/>
<path d="M29.0007 30V31H30.0007V30H29.0007Z" fill="#FEC859"/>
<path d="M31.0007 29V30H32.0007V29H31.0007Z" fill="#FEC859"/>
<path d="M32.0007 28V29H33.0007V28H32.0007Z" fill="#FEC859"/>
<path d="M32.0007 29V30H33.0007V29H32.0007Z" fill="#FEC859"/>
<path d="M33.0007 29V30H34.0007V29H33.0007Z" fill="#FEC859"/>
<path d="M33.0007 28V29H34.0007V28H33.0007Z" fill="#FEC859"/>
<path d="M32.0007 30V31H33.0007V30H32.0007Z" fill="#FEC859"/>
<path d="M32.0007 31V32H33.0007V31H32.0007Z" fill="#FEC859"/>
<path d="M33.0007 31V32H34.0007V31H33.0007Z" fill="#FEC859"/>
<path d="M33.0007 30V31H34.0007V30H33.0007Z" fill="#FEC859"/>
<path d="M28.0007 31V32H29.0007V31H28.0007Z" fill="#FEC859"/>
<path d="M28.0007 32V33H29.0007V32H28.0007Z" fill="#FEC859"/>
<path d="M29.0007 32V33H30.0007V32H29.0007Z" fill="#FEC859"/>
<path d="M29.0007 31V32H30.0007V31H29.0007Z" fill="#FEC859"/>
<path d="M30.0007 31V32H31.0007V31H30.0007Z" fill="#FEC859"/>
<path d="M30.0007 32V33H31.0007V32H30.0007Z" fill="#FEC859"/>
<path d="M31.0007 32V33H32.0007V32H31.0007Z" fill="#FEC859"/>
<path d="M32.0007 32V33H33.0007V32H32.0007Z" fill="#FEC859"/>
<path d="M33.0007 32V33H34.0007V32H33.0007Z" fill="#FEC859"/>
<path d="M35.0007 31V32H36.0007V31H35.0007Z" fill="#FEC859"/>
<path d="M35.0007 30V31H36.0007V30H35.0007Z" fill="#FEC859"/>
<path d="M35.0007 32V33H36.0007V32H35.0007Z" fill="#FEC859"/>
<path d="M31.0007 31V32H32.0007V31H31.0007Z" fill="#FEC859"/>
<path d="M29.0007 33V34H30.0007V33H29.0007Z" fill="#FEC859"/>
<path d="M28.0007 33V34H29.0007V33H28.0007Z" fill="#FEC859"/>
<path d="M27.0007 33V34H28.0007V33H27.0007Z" fill="#FEC859"/>
<path d="M34.0007 34V35H35.0007V34H34.0007Z" fill="#FEC859"/>
<path d="M29.0007 34V35H30.0007V34H29.0007Z" fill="#FEC859"/>
<path d="M30.0007 34V35H31.0007V34H30.0007Z" fill="#FEC859"/>
<path d="M30.0007 33V34H31.0007V33H30.0007Z" fill="#FEC859"/>
<path d="M31.0007 33V34H32.0007V33H31.0007Z" fill="#FEC859"/>
<path d="M31.0007 34V35H32.0007V34H31.0007Z" fill="#FEC859"/>
<path d="M30.0007 35V36H31.0007V35H30.0007Z" fill="#FEC859"/>
<path d="M28.0007 34V35H29.0007V34H28.0007Z" fill="#FEC859"/>
<path d="M29.0007 35V36H30.0007V35H29.0007Z" fill="#FEC859"/>
<path d="M31.0007 35V36H32.0007V35H31.0007Z" fill="#FEC859"/>
<path d="M32.0007 34V35H33.0007V34H32.0007Z" fill="#FEC859"/>
<path d="M32.0007 33V34H33.0007V33H32.0007Z" fill="#FEC859"/>
<path d="M34.0007 29V30H35.0007V29H34.0007Z" fill="#FEC859"/>
<path d="M23.0007 27V28H24.0007V27H23.0007Z" fill="#FEC859"/>
<path d="M22.0007 27V28H23.0007V27H22.0007Z" fill="#FEC859"/>
<path d="M27.0007 19V20H28.0007V19H27.0007Z" fill="#FEC859"/>
<path d="M31.0007 23V24H32.0007V23H31.0007Z" fill="#FEC859"/>
<path d="M32.0007 23V24H33.0007V23H32.0007Z" fill="#FEC859"/>
<path d="M32.0007 24V25H33.0007V24H32.0007Z" fill="#FEC859"/>
<path d="M33.0007 24V25H34.0007V24H33.0007Z" fill="#FEC859"/>
<path d="M32.0007 22V23H33.0007V22H32.0007Z" fill="#FEC859"/>
<path d="M33.0007 22V23H34.0007V22H33.0007Z" fill="#FEC859"/>
<path d="M28.0007 13V14H29.0007V13H28.0007Z" fill="#FEC859"/>
<path d="M28.0007 16V17H29.0007V16H28.0007Z" fill="#FEC859"/>
<path d="M28.0007 15V16H29.0007V15H28.0007Z" fill="#FEC859"/>
<path d="M31.0007 17V18H32.0007V17H31.0007Z" fill="#FEC859"/>
<path d="M29.0007 16V17H30.0007V16H29.0007Z" fill="#FEC859"/>
<path d="M29.0007 15V16H30.0007V15H29.0007Z" fill="#FEC859"/>
<path d="M27.0007 13V14H28.0007V13H27.0007Z" fill="#FEC859"/>
<path d="M29.0007 13V14H30.0007V13H29.0007Z" fill="#FEC859"/>
<path d="M27.0007 15V16H28.0007V15H27.0007Z" fill="#FEC859"/>
<path d="M26.0007 15V16H27.0007V15H26.0007Z" fill="#FEC859"/>
<path d="M20.0007 22V23H21.0007V22H20.0007Z" fill="#FEC859"/>
<path d="M19.0007 22V23H20.0007V22H19.0007Z" fill="#FEC859"/>
<path d="M21.0007 22V23H22.0007V22H21.0007Z" fill="#FEC859"/>
<path d="M7.00073 19V20H8.00073V19H7.00073Z" fill="#FEC859"/>
<path d="M6.00073 19V20H7.00073V19H6.00073Z" fill="#FEC859"/>
<path d="M8.00073 19V20H9.00073V19H8.00073Z" fill="#FEC859"/>
<path d="M6.00073 13V14H7.00073V13H6.00073Z" fill="#FEC859"/>
<path d="M6.00073 9V10H7.00073V9H6.00073Z" fill="#FEC859"/>
<path d="M4.00073 5V6H5.00073V5H4.00073Z" fill="#FEC859"/>
<path d="M4.00073 9V10H5.00073V9H4.00073Z" fill="#FEC859"/>
<path d="M5.00073 9V10H6.00073V9H5.00073Z" fill="#FEC859"/>
<path d="M7.00073 8V9H8.00073V8H7.00073Z" fill="#FEC859"/>
<path d="M5.00073 10V11H6.00073V10H5.00073Z" fill="#FEC859"/>
<path d="M4.00073 10V11H5.00073V10H4.00073Z" fill="#FEC859"/>
<path d="M4.00073 8V9H5.00073V8H4.00073Z" fill="#FEC859"/>
<path d="M5.00073 13V14H6.00073V13H5.00073Z" fill="#FEC859"/>
<path d="M7.00073 13V14H8.00073V13H7.00073Z" fill="#FEC859"/>
<path d="M8.00073 12V13H9.00073V12H8.00073Z" fill="#FEC859"/>
<path d="M9.00073 12V13H10.0007V12H9.00073Z" fill="#FEC859"/>
<path d="M14.0007 9V10H15.0007V9H14.0007Z" fill="#FEC859"/>
<path d="M13.0007 9V10H14.0007V9H13.0007Z" fill="#FEC859"/>
<path d="M13.0007 11V12H14.0007V11H13.0007Z" fill="#FEC859"/>
<path d="M12.0007 11V12H13.0007V11H12.0007Z" fill="#FEC859"/>
<path d="M11.0007 10V11H12.0007V10H11.0007Z" fill="#FEC859"/>
<path d="M13.0007 10V11H14.0007V10H13.0007Z" fill="#FEC859"/>
<path d="M10.0007 10V11H11.0007V10H10.0007Z" fill="#FEC859"/>
<path d="M15.0007 9V10H16.0007V9H15.0007Z" fill="#FEC859"/>
<path d="M16.0007 5V6H17.0007V5H16.0007Z" fill="#FEC859"/>
<path d="M17.0007 5V6H18.0007V5H17.0007Z" fill="#FEC859"/>
<path d="M16.0007 4V5H17.0007V4H16.0007Z" fill="#FEC859"/>
<path d="M17.0007 4V5H18.0007V4H17.0007Z" fill="#FEC859"/>
<path d="M21.0007 5V6H22.0007V5H21.0007Z" fill="#FEC859"/>
<path d="M22.0007 5V6H23.0007V5H22.0007Z" fill="#FEC859"/>
<path d="M19.0007 6V7H20.0007V6H19.0007Z" fill="#FEC859"/>
<path d="M18.0007 6V7H19.0007V6H18.0007Z" fill="#FEC859"/>
<path d="M18.0007 5V6H19.0007V5H18.0007Z" fill="#FEC859"/>
<path d="M16.0007 6V7H17.0007V6H16.0007Z" fill="#FEC859"/>
<path d="M19.0007 7V8H20.0007V7H19.0007Z" fill="#FEC859"/>
<path d="M18.0007 7V8H19.0007V7H18.0007Z" fill="#FEC859"/>
<path d="M17.0007 6V7H18.0007V6H17.0007Z" fill="#FEC859"/>
<path d="M17.0007 7V8H18.0007V7H17.0007Z" fill="#FEC859"/>
<path d="M21.0007 7V8H22.0007V7H21.0007Z" fill="#FEC859"/>
<path d="M18.0007 12V13H19.0007V12H18.0007Z" fill="#FEC859"/>
<path d="M17.0007 13V14H18.0007V13H17.0007Z" fill="#FEC859"/>
<path d="M17.0007 15V16H18.0007V15H17.0007Z" fill="#FEC859"/>
<path d="M19.0007 16V17H20.0007V16H19.0007Z" fill="#FEC859"/>
<path d="M13.0007 14V15H14.0007V14H13.0007Z" fill="#FEC859"/>
<path d="M12.0007 15V16H13.0007V15H12.0007Z" fill="#FEC859"/>
<path d="M12.0007 23V24H13.0007V23H12.0007Z" fill="#FEC859"/>
<path d="M11.0007 23V24H12.0007V23H11.0007Z" fill="#FEC859"/>
<path d="M12.0007 22V23H13.0007V22H12.0007Z" fill="#FEC859"/>
<path d="M11.0007 21V22H12.0007V21H11.0007Z" fill="#FEC859"/>
<path d="M8.00073 21V22H9.00073V21H8.00073Z" fill="#FEC859"/>
<path d="M10.0007 13V14H11.0007V13H10.0007Z" fill="#FEC859"/>
<path d="M28.0007 12V13H29.0007V12H28.0007Z" fill="#FEC859"/>
<path d="M29.0007 5V6H30.0007V5H29.0007Z" fill="#FEC859"/>
<path d="M30.0007 9V10H31.0007V9H30.0007Z" fill="#FEC859"/>
<path d="M31.0007 11V12H32.0007V11H31.0007Z" fill="#FEC859"/>
<path d="M32.0007 12V13H33.0007V12H32.0007Z" fill="#FEC859"/>
<path d="M23.0007 6V7H24.0007V6H23.0007Z" fill="#FEC859"/>
<path d="M24.0007 5V6H25.0007V5H24.0007Z" fill="#FEC859"/>
<path d="M26.0007 8V9H27.0007V8H26.0007Z" fill="#FEC859"/>
<path d="M26.0007 7V8H27.0007V7H26.0007Z" fill="#FEC859"/>
<path d="M27.0007 8V9H28.0007V8H27.0007Z" fill="#FEC859"/>
<path d="M28.0007 8V9H29.0007V8H28.0007Z" fill="#FEC859"/>
<path d="M26.0007 9V10H27.0007V9H26.0007Z" fill="#FEC859"/>
<path d="M27.0007 9V10H28.0007V9H27.0007Z" fill="#FEC859"/>
<path d="M25.0007 8V9H26.0007V8H25.0007Z" fill="#FEC859"/>
<path d="M25.0007 5V6H26.0007V5H25.0007Z" fill="#FEC859"/>
<path d="M20.0007 6V7H21.0007V6H20.0007Z" fill="#FEC859"/>
<path d="M14.0007 8V9H15.0007V8H14.0007Z" fill="#FEC859"/>
<path d="M13.0007 8V9H14.0007V8H13.0007Z" fill="#FEC859"/>
<path d="M15.0007 8V9H16.0007V8H15.0007Z" fill="#FEC859"/>
<path d="M12.0007 6V7H13.0007V6H12.0007Z" fill="#FEC859"/>
<path d="M11.0007 6V7H12.0007V6H11.0007Z" fill="#FEC859"/>
<path d="M12.0007 7V8H13.0007V7H12.0007Z" fill="#FEC859"/>
<path d="M12.0007 8V9H13.0007V8H12.0007Z" fill="#FEC859"/>
<path d="M10.0007 9V10H11.0007V9H10.0007Z" fill="#FEC859"/>
<path d="M14.0007 7V8H15.0007V7H14.0007Z" fill="#FEC859"/>
<path d="M15.0007 7V8H16.0007V7H15.0007Z" fill="#FEC859"/>
<path d="M14.0007 10V11H15.0007V10H14.0007Z" fill="#FEC859"/>
<path d="M13.0007 7V8H14.0007V7H13.0007Z" fill="#FEC859"/>
<path d="M14.0007 6V7H15.0007V6H14.0007Z" fill="#FEC859"/>
<path d="M11.0007 7V8H12.0007V7H11.0007Z" fill="#FEC859"/>
<path d="M13.0007 6V7H14.0007V6H13.0007Z" fill="#FEC859"/>
<path d="M22.0007 17V18H23.0007V17H22.0007Z" fill="#FEC859"/>
<path d="M24.0007 14V15H25.0007V14H24.0007Z" fill="#FEC859"/>
<path d="M11.0007 8V9H12.0007V8H11.0007Z" fill="#F0E091"/>
<path d="M11.0007 9V10H12.0007V9H11.0007Z" fill="#F0E091"/>
<path d="M12.0007 9V10H13.0007V9H12.0007Z" fill="#F0E091"/>
<path d="M8.00073 15V16H9.00073V15H8.00073Z" fill="#F0E091"/>
<path d="M9.00073 15V16H10.0007V15H9.00073Z" fill="#F0E091"/>
<path d="M10.0007 25V26H11.0007V25H10.0007Z" fill="#F0E091"/>
<path d="M11.0007 25V26H12.0007V25H11.0007Z" fill="#F0E091"/>
<path d="M6.00073 33V34H7.00073V33H6.00073Z" fill="#F0E091"/>
<path d="M7.00073 33V34H8.00073V33H7.00073Z" fill="#F0E091"/>
<path d="M12.0007 34V35H13.0007V34H12.0007Z" fill="#F0E091"/>
<path d="M10.0007 34V35H11.0007V34H10.0007Z" fill="#F0E091"/>
<path d="M13.0007 34V35H14.0007V34H13.0007Z" fill="#F0E091"/>
<path d="M14.0007 33V34H15.0007V33H14.0007Z" fill="#F0E091"/>
<path d="M11.0007 24V25H12.0007V24H11.0007Z" fill="#F0E091"/>
<path d="M12.0007 24V25H13.0007V24H12.0007Z" fill="#F0E091"/>
<path d="M8.00073 15V16H9.00073V15H8.00073Z" fill="#F0E091"/>
<path d="M8.00073 20V21H9.00073V20H8.00073Z" fill="#F0E091"/>
<path d="M7.00073 20V21H8.00073V20H7.00073Z" fill="#F0E091"/>
<path d="M7.00073 21V22H8.00073V21H7.00073Z" fill="#F0E091"/>
<path d="M6.00073 21V22H7.00073V21H6.00073Z" fill="#F0E091"/>
<path d="M5.00073 22V23H6.00073V22H5.00073Z" fill="#F0E091"/>
<path d="M13.0007 23V24H14.0007V23H13.0007Z" fill="#F0E091"/>
<path d="M14.0007 14V15H15.0007V14H14.0007Z" fill="#F0E091"/>
<path d="M15.0007 14V15H16.0007V14H15.0007Z" fill="#F0E091"/>
<path d="M13.0007 15V16H14.0007V15H13.0007Z" fill="#F0E091"/>
<path d="M14.0007 15V16H15.0007V15H14.0007Z" fill="#F0E091"/>
<path d="M15.0007 15V16H16.0007V15H15.0007Z" fill="#F0E091"/>
<path d="M16.0007 15V16H17.0007V15H16.0007Z" fill="#F0E091"/>
<path d="M10.0007 21V22H11.0007V21H10.0007Z" fill="#F0E091"/>
<path d="M11.0007 22V23H12.0007V22H11.0007Z" fill="#F0E091"/>
<path d="M5.00073 28V29H6.00073V28H5.00073Z" fill="#F0E091"/>
<path d="M6.00073 29V30H7.00073V29H6.00073Z" fill="#F0E091"/>
<path d="M16.0007 16V17H17.0007V16H16.0007Z" fill="#F0E091"/>
<path d="M17.0007 16V17H18.0007V16H17.0007Z" fill="#F0E091"/>
<path d="M18.0007 18V19H19.0007V18H18.0007Z" fill="#F0E091"/>
<path d="M19.0007 18V19H20.0007V18H19.0007Z" fill="#F0E091"/>
<path d="M18.0007 17V18H19.0007V17H18.0007Z" fill="#F0E091"/>
<path d="M19.0007 17V18H20.0007V17H19.0007Z" fill="#F0E091"/>
<path d="M20.0007 25V26H21.0007V25H20.0007Z" fill="#F0E091"/>
<path d="M20.0007 24V25H21.0007V24H20.0007Z" fill="#F0E091"/>
<path d="M34.0007 25V26H35.0007V25H34.0007Z" fill="#F0E091"/>
<path d="M34.0007 24V25H35.0007V24H34.0007Z" fill="#F0E091"/>
<path d="M18.0007 14V15H19.0007V14H18.0007Z" fill="#F0E091"/>
<path d="M19.0007 14V15H20.0007V14H19.0007Z" fill="#F0E091"/>
<path d="M18.0007 13V14H19.0007V13H18.0007Z" fill="#F0E091"/>
<path d="M19.0007 13V14H20.0007V13H19.0007Z" fill="#F0E091"/>
<path d="M20.0007 13V14H21.0007V13H20.0007Z" fill="#F0E091"/>
<path d="M19.0007 12V13H20.0007V12H19.0007Z" fill="#F0E091"/>
<path d="M23.0007 12V13H24.0007V12H23.0007Z" fill="#F0E091"/>
<path d="M22.0007 11V12H23.0007V11H22.0007Z" fill="#F0E091"/>
<path d="M31.0007 9V10H32.0007V9H31.0007Z" fill="#F0E091"/>
<path d="M27.0007 7V8H28.0007V7H27.0007Z" fill="#F0E091"/>
<path d="M31.0007 4V5H32.0007V4H31.0007Z" fill="#F0E091"/>
<path d="M23.0007 5V6H24.0007V5H23.0007Z" fill="#F0E091"/>
<path d="M20.0007 7V8H21.0007V7H20.0007Z" fill="#F0E091"/>
<path d="M18.0007 16V17H19.0007V16H18.0007Z" fill="#F0E091"/>
<path d="M33.0007 25V26H34.0007V25H33.0007Z" fill="#F0E091"/>
<path d="M33.0007 23V24H34.0007V23H33.0007Z" fill="#F0E091"/>
<path d="M20.0007 16V17H21.0007V16H20.0007Z" fill="#F0E091"/>
<path d="M19.0007 15V16H20.0007V15H19.0007Z" fill="#F0E091"/>
<path d="M20.0007 12V13H21.0007V12H20.0007Z" fill="#F0E091"/>
<path d="M21.0007 6V7H22.0007V6H21.0007Z" fill="#F0E091"/>
<path d="M22.0007 6V7H23.0007V6H22.0007Z" fill="#F0E091"/>
<path d="M21.0007 12V13H22.0007V12H21.0007Z" fill="#F0E091"/>
<path d="M34.0007 19V20H35.0007V19H34.0007Z" fill="#F0E091"/>
<path d="M35.0007 18V19H36.0007V18H35.0007Z" fill="#F0E091"/>
<path d="M27.0007 22V23H28.0007V22H27.0007Z" fill="#F0E091"/>
<path d="M28.0007 21V22H29.0007V21H28.0007Z" fill="#F0E091"/>
<path d="M26.0007 30V31H27.0007V30H26.0007Z" fill="#6DB9F0"/>
<path d="M25.0007 30V31H26.0007V30H25.0007Z" fill="#6DB9F0"/>
<path d="M24.0007 31V32H25.0007V31H24.0007Z" fill="#6DB9F0"/>
<path d="M24.0007 32V33H25.0007V32H24.0007Z" fill="#6DB9F0"/>
<path d="M25.0007 33V34H26.0007V33H25.0007Z" fill="#6DB9F0"/>
<path d="M27.0007 32V33H28.0007V32H27.0007Z" fill="#6DB9F0"/>
<path d="M26.0007 33V34H27.0007V33H26.0007Z" fill="#6DB9F0"/>
<path d="M27.0007 31V32H28.0007V31H27.0007Z" fill="#6DB9F0"/>
<path d="M25.0007 31V32H26.0007V31H25.0007Z" fill="#6DB9F0"/>
<path d="M26.0007 32V33H27.0007V32H26.0007Z" fill="#6DB9F0"/>
<path d="M25.0007 32V33H26.0007V32H25.0007Z" fill="#6DB9F0"/>
<path d="M26.0007 31V32H27.0007V31H26.0007Z" fill="#B3D9FF"/>
<path d="M25.0007 23V24H26.0007V23H25.0007Z" fill="#F0E091"/>
<path d="M26.0007 22V23H27.0007V22H26.0007Z" fill="#F0E091"/>
<path d="M31.0007 18V19H32.0007V18H31.0007Z" fill="#F0E091"/>
<path d="M30.0007 18V19H31.0007V18H30.0007Z" fill="#F0E091"/>
<path d="M29.0007 17V18H30.0007V17H29.0007Z" fill="#F0E091"/>
<path d="M21.0007 24V25H22.0007V24H21.0007Z" fill="#F0E091"/>
<path d="M22.0007 23V24H23.0007V23H22.0007Z" fill="#F0E091"/>
<path d="M18.0007 26V27H19.0007V26H18.0007Z" fill="#F0E091"/>
<path d="M19.0007 25V26H20.0007V25H19.0007Z" fill="#F0E091"/>
<path d="M21.0007 29V30H22.0007V29H21.0007Z" fill="#F0E091"/>
<path d="M22.0007 28V29H23.0007V28H22.0007Z" fill="#F0E091"/>
<path d="M24.0007 30V31H25.0007V30H24.0007Z" fill="#F0E091"/>
<path d="M23.0007 30V31H24.0007V30H23.0007Z" fill="#F0E091"/>
<path d="M30.0007 29V30H31.0007V29H30.0007Z" fill="#F0E091"/>
<path d="M29.0007 29V30H30.0007V29H29.0007Z" fill="#F0E091"/>
<path d="M31.0007 30V31H32.0007V30H31.0007Z" fill="#F0E091"/>
<path d="M34.0007 30V31H35.0007V30H34.0007Z" fill="#F0E091"/>
<path d="M34.0007 31V32H35.0007V31H34.0007Z" fill="#F0E091"/>
<path d="M34.0007 32V33H35.0007V32H34.0007Z" fill="#F0E091"/>
<path d="M34.0007 33V34H35.0007V33H34.0007Z" fill="#F0E091"/>
<path d="M33.0007 33V34H34.0007V33H33.0007Z" fill="#F0E091"/>
<path d="M33.0007 34V35H34.0007V34H33.0007Z" fill="#F0E091"/>
<path d="M32.0007 35V36H33.0007V35H32.0007Z" fill="#F0E091"/>
<path d="M30.0007 30V31H31.0007V30H30.0007Z" fill="#F0E091"/>
<path d="M25.0007 29V30H26.0007V29H25.0007Z" fill="#F0E091"/>
<path d="M22.0007 31V32H23.0007V31H22.0007Z" fill="#F0E091"/>
<path d="M21.0007 31V32H22.0007V31H21.0007Z" fill="#F0E091"/>
<path d="M23.0007 31V32H24.0007V31H23.0007Z" fill="#F0E091"/>
<path d="M22.0007 12V13H23.0007V12H22.0007Z" fill="#F0E091"/>
<path d="M23.0007 13V14H24.0007V13H23.0007Z" fill="#F0E091"/>
<path d="M32.0007 10V11H33.0007V10H32.0007Z" fill="#F0E091"/>
<path d="M31.0007 10V11H32.0007V10H31.0007Z" fill="#F0E091"/>
<path d="M32.0007 11V12H33.0007V11H32.0007Z" fill="#F0E091"/>
<path d="M24.0007 13V14H25.0007V13H24.0007Z" fill="#F0E091"/>
<path d="M12.0007 10V11H13.0007V10H12.0007Z" fill="#F0E091"/>
<path d="M10.0007 14V15H11.0007V14H10.0007Z" fill="#F0E091"/>
<path d="M12.0015 4L12.0007 5L13.0007 5.00081L13.0015 4.00081L12.0015 4Z" fill="#FCB346"/>
<path d="M16.0015 9L16.0007 10L17.0007 10.0008L17.0015 9.00081L16.0015 9Z" fill="#FCB346"/>
<path d="M16.0015 10L16.0007 11L17.0007 11.0008L17.0015 10.0008L16.0015 10Z" fill="#FCB346"/>
<path d="M15.0015 10L15.0007 11L16.0007 11.0008L16.0015 10.0008L15.0015 10Z" fill="#FCB346"/>
<path d="M9.00154 6L9.00073 7L10.0007 7.00081L10.0015 6.00081L9.00154 6Z" fill="#FCB346"/>
<path d="M9.00154 7L9.00073 8L10.0007 8.00081L10.0015 7.00081L9.00154 7Z" fill="#FCB346"/>
<path d="M8.00154 7L8.00073 8L9.00073 8.00081L9.00154 7.00081L8.00154 7Z" fill="#FCB346"/>
<path d="M8.00154 8L8.00073 9L9.00073 9.00081L9.00154 8.00081L8.00154 8Z" fill="#FCB346"/>
<path d="M7.00154 10L7.00073 11L8.00073 11.0008L8.00154 10.0008L7.00154 10Z" fill="#FCB346"/>
<path d="M6.00154 10L6.00073 11L7.00073 11.0008L7.00154 10.0008L6.00154 10Z" fill="#FCB346"/>
<path d="M8.00154 9L8.00073 10L9.00073 10.0008L9.00154 9.00081L8.00154 9Z" fill="#FCB346"/>
<path d="M7.00154 9L7.00073 10L8.00073 10.0008L8.00154 9.00081L7.00154 9Z" fill="#FCB346"/>
<path d="M4.00154 12L4.00073 13L5.00073 13.0008L5.00154 12.0008L4.00154 12Z" fill="#FFB94F"/>
<path d="M5.00154 12L5.00073 13L6.00073 13.0008L6.00154 12.0008L5.00154 12Z" fill="#FFB94F"/>
<path d="M6.00154 12L6.00073 13L7.00073 13.0008L7.00154 12.0008L6.00154 12Z" fill="#FFB94F"/>
<path d="M7.00154 12L7.00073 13L8.00073 13.0008L8.00154 12.0008L7.00154 12Z" fill="#FFB94F"/>
<path d="M8.00154 11L8.00073 12L9.00073 12.0008L9.00154 11.0008L8.00154 11Z" fill="#FFB94F"/>
<path d="M9.00154 11L9.00073 12L10.0007 12.0008L10.0015 11.0008L9.00154 11Z" fill="#FFB94F"/>
<path d="M10.0015 11L10.0007 12L11.0007 12.0008L11.0015 11.0008L10.0015 11Z" fill="#FFB94F"/>
<path d="M7.00154 11L7.00073 12L8.00073 12.0008L8.00154 11.0008L7.00154 11Z" fill="#FFB94F"/>
<path d="M10.0015 8L10.0007 9L11.0007 9.00081L11.0015 8.00081L10.0015 8Z" fill="#FFB94F"/>
<path d="M10.0015 12L10.0007 13L11.0007 13.0008L11.0015 12.0008L10.0015 12Z" fill="#FFB94F"/>
<path d="M11.0015 13L11.0007 14L12.0007 14.0008L12.0015 13.0008L11.0015 13Z" fill="#FFB94F"/>
<path d="M17.0015 10L17.0007 11L18.0007 11.0008L18.0015 10.0008L17.0015 10Z" fill="#FFB94F"/>
<path d="M18.0015 11L18.0007 12L19.0007 12.0008L19.0015 11.0008L18.0015 11Z" fill="#FFB94F"/>
<path d="M14.0015 13L14.0007 14L15.0007 14.0008L15.0015 13.0008L14.0015 13Z" fill="#FFB94F"/>
<path d="M16.0015 12L16.0007 13L17.0007 13.0008L17.0015 12.0008L16.0015 12Z" fill="#FFB94F"/>
<path d="M9.00154 8L9.00073 9L10.0007 9.00081L10.0015 8.00081L9.00154 8Z" fill="#FFB94F"/>
<path d="M10.0015 7L10.0007 8L11.0007 8.00081L11.0015 7.00081L10.0015 7Z" fill="#FFB94F"/>
<path d="M9.00154 10L9.00073 11L10.0007 11.0008L10.0015 10.0008L9.00154 10Z" fill="#FFB94F"/>
<path d="M8.00154 10L8.00073 11L9.00073 11.0008L9.00154 10.0008L8.00154 10Z" fill="#FFB94F"/>
<path d="M9.00154 9L9.00073 10L10.0007 10.0008L10.0015 9.00081L9.00154 9Z" fill="#FFB94F"/>
<path d="M18.0015 9L18.0007 10L19.0007 10.0008L19.0015 9.00081L18.0015 9Z" fill="#FFB94F"/>
<path d="M18.0015 8L18.0007 9L19.0007 9.00081L19.0015 8.00081L18.0015 8Z" fill="#FFB94F"/>
<path d="M17.0015 9L17.0007 10L18.0007 10.0008L18.0015 9.00081L17.0015 9Z" fill="#FFB94F"/>
<path d="M17.0015 8L17.0007 9L18.0007 9.00081L18.0015 8.00081L17.0015 8Z" fill="#FFB94F"/>
<path d="M16.0015 8L16.0007 9L17.0007 9.00081L17.0015 8.00081L16.0015 8Z" fill="#FFB94F"/>
<path d="M16.0015 7L16.0007 8L17.0007 8.00081L17.0015 7.00081L16.0015 7Z" fill="#FFB94F"/>
<path d="M15.0015 6L15.0007 7L16.0007 7.00081L16.0015 6.00081L15.0015 6Z" fill="#FFB94F"/>
<path d="M10.0015 6L10.0007 7L11.0007 7.00081L11.0015 6.00081L10.0015 6Z" fill="#FFB94F"/>
<path d="M10.0015 5L10.0007 6L11.0007 6.00081L11.0015 5.00081L10.0015 5Z" fill="#FFB94F"/>
<path d="M4.00154 17L4.00073 18L5.00073 18.0008L5.00154 17.0008L4.00154 17Z" fill="#FFB94F"/>
<path d="M4.00154 16L4.00073 17L5.00073 17.0008L5.00154 16.0008L4.00154 16Z" fill="#FFB94F"/>
<path d="M4.00154 15L4.00073 16L5.00073 16.0008L5.00154 15.0008L4.00154 15Z" fill="#FFB94F"/>
<path d="M4.00154 14L4.00073 15L5.00073 15.0008L5.00154 14.0008L4.00154 14Z" fill="#FFB94F"/>
<path d="M11.0015 5L11.0007 6L12.0007 6.00081L12.0015 5.00081L11.0015 5Z" fill="#FFB94F"/>
<path d="M15.0015 4L15.0007 5L16.0007 5.00081L16.0015 4.00081L15.0015 4Z" fill="#FFB94F"/>
<path d="M12.0015 5L12.0007 6L13.0007 6.00081L13.0015 5.00081L12.0015 5Z" fill="#FFB94F"/>
<path d="M13.0015 5L13.0007 6L14.0007 6.00081L14.0015 5.00081L13.0015 5Z" fill="#FFB94F"/>
<path d="M14.0015 5L14.0007 6L15.0007 6.00081L15.0015 5.00081L14.0015 5Z" fill="#FFB94F"/>
<path d="M5.00154 18L5.00073 19L6.00073 19.0008L6.00154 18.0008L5.00154 18Z" fill="#FFB94F"/>
<path d="M4.00154 19L4.00073 20L5.00073 20.0008L5.00154 19.0008L4.00154 19Z" fill="#FFB94F"/>
<path d="M6.00154 18L6.00073 19L7.00073 19.0008L7.00154 18.0008L6.00154 18Z" fill="#FFB94F"/>
<path d="M5.00154 19L5.00073 20L6.00073 20.0008L6.00154 19.0008L5.00154 19Z" fill="#FFB94F"/>
<path d="M4.00154 20L4.00073 21L5.00073 21.0008L5.00154 20.0008L4.00154 20Z" fill="#FFB94F"/>
<path d="M5.00154 19L5.00073 20L6.00073 20.0008L6.00154 19.0008L5.00154 19Z" fill="#FFB94F"/>
<path d="M4.00154 21L4.00073 22L5.00073 22.0008L5.00154 21.0008L4.00154 21Z" fill="#FFB94F"/>
<path d="M7.00154 18L7.00073 19L8.00073 19.0008L8.00154 18.0008L7.00154 18Z" fill="#FFB94F"/>
<path d="M8.00154 18L8.00073 19L9.00073 19.0008L9.00154 18.0008L8.00154 18Z" fill="#FFB94F"/>
<path d="M11.0015 4L11.0007 5L12.0007 5.00081L12.0015 4.00081L11.0015 4Z" fill="#FFB94F"/>
<path d="M22.0015 9L22.0007 10L23.0007 10.0008L23.0015 9.00081L22.0015 9Z" fill="#FFB94F"/>
<path d="M21.0015 9L21.0007 10L22.0007 10.0008L22.0015 9.00081L21.0015 9Z" fill="#FFB94F"/>
<path d="M21.0015 10L21.0007 11L22.0007 11.0008L22.0015 10.0008L21.0015 10Z" fill="#FFB94F"/>
<path d="M23.0015 9L23.0007 10L24.0007 10.0008L24.0015 9.00081L23.0015 9Z" fill="#FFB94F"/>
<path d="M19.0015 10L19.0007 11L20.0007 11.0008L20.0015 10.0008L19.0015 10Z" fill="#FFB94F"/>
<path d="M18.0015 10L18.0007 11L19.0007 11.0008L19.0015 10.0008L18.0015 10Z" fill="#FFB94F"/>
<path d="M20.0015 10L20.0007 11L21.0007 11.0008L21.0015 10.0008L20.0015 10Z" fill="#FFB94F"/>
<path d="M16.0015 11L16.0007 12L17.0007 12.0008L17.0015 11.0008L16.0015 11Z" fill="#FFB94F"/>
<path d="M15.0015 11L15.0007 12L16.0007 12.0008L16.0015 11.0008L15.0015 11Z" fill="#FFB94F"/>
<path d="M15.0015 12L15.0007 13L16.0007 13.0008L16.0015 12.0008L15.0015 12Z" fill="#FFB94F"/>
<path d="M14.0015 12L14.0007 13L15.0007 13.0008L15.0015 12.0008L14.0015 12Z" fill="#FFB94F"/>
<path d="M13.0015 13L13.0007 14L14.0007 14.0008L14.0015 13.0008L13.0015 13Z" fill="#FFB94F"/>
<path d="M12.0015 13L12.0007 14L13.0007 14.0008L13.0015 13.0008L12.0015 13Z" fill="#FFB94F"/>
<path d="M12.0015 14L12.0007 15L13.0007 15.0008L13.0015 14.0008L12.0015 14Z" fill="#FFB94F"/>
<path d="M11.0015 14L11.0007 15L12.0007 15.0008L12.0015 14.0008L11.0015 14Z" fill="#FFB94F"/>
<path d="M17.0015 11L17.0007 12L18.0007 12.0008L18.0015 11.0008L17.0015 11Z" fill="#FFB94F"/>
<path d="M23.0015 8L23.0007 9L24.0007 9.00081L24.0015 8.00081L23.0015 8Z" fill="#FFB94F"/>
<path d="M27.0015 12L27.0007 13L28.0007 13.0008L28.0015 12.0008L27.0015 12Z" fill="#FFB94F"/>
<path d="M27.0015 11L27.0007 12L28.0007 12.0008L28.0015 11.0008L27.0015 11Z" fill="#FFB94F"/>
<path d="M28.0015 11L28.0007 12L29.0007 12.0008L29.0015 11.0008L28.0015 11Z" fill="#FFB94F"/>
<path d="M25.0015 10L25.0007 11L26.0007 11.0008L26.0015 10.0008L25.0015 10Z" fill="#FFB94F"/>
<path d="M28.0015 10L28.0007 11L29.0007 11.0008L29.0015 10.0008L28.0015 10Z" fill="#FFB94F"/>
<path d="M29.0015 9L29.0007 10L30.0007 10.0008L30.0015 9.00081L29.0015 9Z" fill="#FFB94F"/>
<path d="M29.0015 8L29.0007 9L30.0007 9.00081L30.0015 8.00081L29.0015 8Z" fill="#FFB94F"/>
<path d="M30.0015 8L30.0007 9L31.0007 9.00081L31.0015 8.00081L30.0015 8Z" fill="#FFB94F"/>
<path d="M31.0015 8L31.0007 9L32.0007 9.00081L32.0015 8.00081L31.0015 8Z" fill="#FFB94F"/>
<path d="M24.0015 7L24.0007 8L25.0007 8.00081L25.0015 7.00081L24.0015 7Z" fill="#FFB94F"/>
<path d="M25.0015 7L25.0007 8L26.0007 8.00081L26.0015 7.00081L25.0015 7Z" fill="#FFB94F"/>
<path d="M26.0015 6L26.0007 7L27.0007 7.00081L27.0015 6.00081L26.0015 6Z" fill="#FFB94F"/>
<path d="M27.0015 5L27.0007 6L28.0007 6.00081L28.0015 5.00081L27.0015 5Z" fill="#FFB94F"/>
<path d="M27.0015 4L27.0007 5L28.0007 5.00081L28.0015 4.00081L27.0015 4Z" fill="#FFB94F"/>
<path d="M26.0015 5L26.0007 6L27.0007 6.00081L27.0015 5.00081L26.0015 5Z" fill="#FFB94F"/>
<path d="M26.0015 4L26.0007 5L27.0007 5.00081L27.0015 4.00081L26.0015 4Z" fill="#FFB94F"/>
<path d="M25.0015 4L25.0007 5L26.0007 5.00081L26.0015 4.00081L25.0015 4Z" fill="#FFB94F"/>
<path d="M28.0015 6L28.0007 7L29.0007 7.00081L29.0015 6.00081L28.0015 6Z" fill="#FFB94F"/>
<path d="M27.0015 6L27.0007 7L28.0007 7.00081L28.0015 6.00081L27.0015 6Z" fill="#FFB94F"/>
<path d="M24.0015 10L24.0007 11L25.0007 11.0008L25.0015 10.0008L24.0015 10Z" fill="#FFB94F"/>
<path d="M24.0015 9L24.0007 10L25.0007 10.0008L25.0015 9.00081L24.0015 9Z" fill="#FFB94F"/>
<path d="M5.00154 17L5.00073 18L6.00073 18.0008L6.00154 17.0008L5.00154 17Z" fill="#FFB94F"/>
<path d="M5.00154 16L5.00073 17L6.00073 17.0008L6.00154 16.0008L5.00154 16Z" fill="#FFB94F"/>
<path d="M25.0015 16L25.0007 17L26.0007 17.0008L26.0015 16.0008L25.0015 16Z" fill="#FFB94F"/>
<path d="M25.0015 17L25.0007 18L26.0007 18.0008L26.0015 17.0008L25.0015 17Z" fill="#FFB94F"/>
<path d="M26.0015 17L26.0007 18L27.0007 18.0008L27.0015 17.0008L26.0015 17Z" fill="#FFB94F"/>
<path d="M30.0015 20L30.0007 21L31.0007 21.0008L31.0015 20.0008L30.0015 20Z" fill="#FFB94F"/>
<path d="M25.0015 15L25.0007 16L26.0007 16.0008L26.0015 15.0008L25.0015 15Z" fill="#FFB94F"/>
<path d="M25.0015 14L25.0007 15L26.0007 15.0008L26.0015 14.0008L25.0015 14Z" fill="#FFB94F"/>
<path d="M6.00154 17L6.00073 18L7.00073 18.0008L7.00154 17.0008L6.00154 17Z" fill="#FFB94F"/>
<path d="M32.0015 9L32.0007 10L33.0007 10.0008L33.0015 9.00081L32.0015 9Z" fill="#FFB94F"/>
<path d="M32.0015 7L32.0007 8L33.0007 8.00081L33.0015 7.00081L32.0015 7Z" fill="#FFB94F"/>
<path d="M32.0015 8L32.0007 9L33.0007 9.00081L33.0015 8.00081L32.0015 8Z" fill="#FFB94F"/>
<path d="M33.0015 9L33.0007 10L34.0007 10.0008L34.0015 9.00081L33.0015 9Z" fill="#FFB94F"/>
<path d="M34.0015 11L34.0007 12L35.0007 12.0008L35.0015 11.0008L34.0015 11Z" fill="#FFB94F"/>
<path d="M33.0015 11L33.0007 12L34.0007 12.0008L34.0015 11.0008L33.0015 11Z" fill="#FFB94F"/>
<path d="M33.0015 10L33.0007 11L34.0007 11.0008L34.0015 10.0008L33.0015 10Z" fill="#FFB94F"/>
<path d="M29.0015 12L29.0007 13L30.0007 13.0008L30.0015 12.0008L29.0015 12Z" fill="#FFB94F"/>
<path d="M29.0015 11L29.0007 12L30.0007 12.0008L30.0015 11.0008L29.0015 11Z" fill="#FFB94F"/>
<path d="M26.0015 14L26.0007 15L27.0007 15.0008L27.0015 14.0008L26.0015 14Z" fill="#FFB94F"/>
<path d="M26.0015 13L26.0007 14L27.0007 14.0008L27.0015 13.0008L26.0015 13Z" fill="#FFB94F"/>
<path d="M30.0015 23L30.0007 24L31.0007 24.0008L31.0015 23.0008L30.0015 23Z" fill="#FFB94F"/>
<path d="M30.0015 22L30.0007 23L31.0007 23.0008L31.0015 22.0008L30.0015 22Z" fill="#FFB94F"/>
<path d="M31.0015 22L31.0007 23L32.0007 23.0008L32.0015 22.0008L31.0015 22Z" fill="#FFB94F"/>
<path d="M31.0015 21L31.0007 22L32.0007 22.0008L32.0015 21.0008L31.0015 21Z" fill="#FFB94F"/>
<path d="M30.0015 21L30.0007 22L31.0007 22.0008L31.0015 21.0008L30.0015 21Z" fill="#FFB94F"/>
<path d="M31.0015 20L31.0007 21L32.0007 21.0008L32.0015 20.0008L31.0015 20Z" fill="#FFB94F"/>
<path d="M35.0015 20L35.0007 21L36.0007 21.0008L36.0015 20.0008L35.0015 20Z" fill="#FFB94F"/>
<path d="M35.0015 21L35.0007 22L36.0007 22.0008L36.0015 21.0008L35.0015 21Z" fill="#FFB94F"/>
<path d="M35.0015 21L35.0007 22L36.0007 22.0008L36.0015 21.0008L35.0015 21Z" fill="#FFB94F"/>
<path d="M35.0015 22L35.0007 23L36.0007 23.0008L36.0015 22.0008L35.0015 22Z" fill="#FFB94F"/>
<path d="M35.0015 22L35.0007 23L36.0007 23.0008L36.0015 22.0008L35.0015 22Z" fill="#FFB94F"/>
<path d="M30.0015 13L30.0007 14L31.0007 14.0008L31.0015 13.0008L30.0015 13Z" fill="#FFB94F"/>
<path d="M30.0015 12L30.0007 13L31.0007 13.0008L31.0015 12.0008L30.0015 12Z" fill="#FFB94F"/>
<path d="M32.0015 21L32.0007 22L33.0007 22.0008L33.0015 21.0008L32.0015 21Z" fill="#FFB94F"/>
<path d="M32.0015 20L32.0007 21L33.0007 21.0008L33.0015 20.0008L32.0015 20Z" fill="#FFB94F"/>
<path d="M33.0015 21L33.0007 22L34.0007 22.0008L34.0015 21.0008L33.0015 21Z" fill="#FFB94F"/>
<path d="M34.0015 21L34.0007 22L35.0007 22.0008L35.0015 21.0008L34.0015 21Z" fill="#FFB94F"/>
<path d="M34.0015 23L34.0007 24L35.0007 24.0008L35.0015 23.0008L34.0015 23Z" fill="#FFB94F"/>
<path d="M34.0015 22L34.0007 23L35.0007 23.0008L35.0015 22.0008L34.0015 22Z" fill="#FFB94F"/>
<path d="M35.0015 23L35.0007 24L36.0007 24.0008L36.0015 23.0008L35.0015 23Z" fill="#FFB94F"/>
<path d="M29.0015 24L29.0007 25L30.0007 25.0008L30.0015 24.0008L29.0015 24Z" fill="#FFB94F"/>
<path d="M29.0015 23L29.0007 24L30.0007 24.0008L30.0015 23.0008L29.0015 23Z" fill="#FFB94F"/>
<path d="M30.0015 24L30.0007 25L31.0007 25.0008L31.0015 24.0008L30.0015 24Z" fill="#FFB94F"/>
<path d="M23.0015 25L23.0007 26L24.0007 26.0008L24.0015 25.0008L23.0015 25Z" fill="#FFB94F"/>
<path d="M22.0015 26L22.0007 27L23.0007 27.0008L23.0015 26.0008L22.0015 26Z" fill="#FFB94F"/>
<path d="M22.0015 25L22.0007 26L23.0007 26.0008L23.0015 25.0008L22.0015 25Z" fill="#FFB94F"/>
<path d="M25.0015 25L25.0007 26L26.0007 26.0008L26.0015 25.0008L25.0015 25Z" fill="#FFB94F"/>
<path d="M27.0015 24L27.0007 25L28.0007 25.0008L28.0015 24.0008L27.0015 24Z" fill="#FFB94F"/>
<path d="M24.0015 26L24.0007 27L25.0007 27.0008L25.0015 26.0008L24.0015 26Z" fill="#FFB94F"/>
<path d="M24.0015 25L24.0007 26L25.0007 26.0008L25.0015 25.0008L24.0015 25Z" fill="#FFB94F"/>
<path d="M13.0015 27L13.0007 28L14.0007 28.0008L14.0015 27.0008L13.0015 27Z" fill="#FFB94F"/>
<path d="M12.0015 27L12.0007 28L13.0007 28.0008L13.0015 27.0008L12.0015 27Z" fill="#FFB94F"/>
<path d="M11.0015 28L11.0007 29L12.0007 29.0008L12.0015 28.0008L11.0015 28Z" fill="#FFB94F"/>
<path d="M14.0015 28L14.0007 29L15.0007 29.0008L15.0015 28.0008L14.0015 28Z" fill="#FFB94F"/>
<path d="M14.0015 27L14.0007 28L15.0007 28.0008L15.0015 27.0008L14.0015 27Z" fill="#FFB94F"/>
<path d="M13.0015 27L13.0007 28L14.0007 28.0008L14.0015 27.0008L13.0015 27Z" fill="#FFB94F"/>
<path d="M12.0015 27L12.0007 28L13.0007 28.0008L13.0015 27.0008L12.0015 27Z" fill="#FFB94F"/>
<path d="M11.0015 27L11.0007 28L12.0007 28.0008L12.0015 27.0008L11.0015 27Z" fill="#FFB94F"/>
<path d="M10.0015 28L10.0007 29L11.0007 29.0008L11.0015 28.0008L10.0015 28Z" fill="#FFB94F"/>
<path d="M9.00154 28L9.00073 29L10.0007 29.0008L10.0015 28.0008L9.00154 28Z" fill="#FFB94F"/>
<path d="M8.00154 28L8.00073 29L9.00073 29.0008L9.00154 28.0008L8.00154 28Z" fill="#FFB94F"/>
<path d="M7.00154 28L7.00073 29L8.00073 29.0008L8.00154 28.0008L7.00154 28Z" fill="#FFB94F"/>
<path d="M9.00154 29L9.00073 30L10.0007 30.0008L10.0015 29.0008L9.00154 29Z" fill="#FFB94F"/>
<path d="M8.00154 29L8.00073 30L9.00073 30.0008L9.00154 29.0008L8.00154 29Z" fill="#FFB94F"/>
<path d="M7.00154 29L7.00073 30L8.00073 30.0008L8.00154 29.0008L7.00154 29Z" fill="#FFB94F"/>
<path d="M8.00154 30L8.00073 31L9.00073 31.0008L9.00154 30.0008L8.00154 30Z" fill="#FFB94F"/>
<path d="M14.0015 27L14.0007 28L15.0007 28.0008L15.0015 27.0008L14.0015 27Z" fill="#FFB94F"/>
<path d="M9.00154 35L9.00073 36L10.0007 36.0008L10.0015 35.0008L9.00154 35Z" fill="#FFB94F"/>
<path d="M10.0015 35L10.0007 36L11.0007 36.0008L11.0015 35.0008L10.0015 35Z" fill="#FFB94F"/>
<path d="M8.00154 34L8.00073 35L9.00073 35.0008L9.00154 34.0008L8.00154 34Z" fill="#FFB94F"/>
<path d="M7.00154 34L7.00073 35L8.00073 35.0008L8.00154 34.0008L7.00154 34Z" fill="#FFB94F"/>
<path d="M9.00154 34L9.00073 35L10.0007 35.0008L10.0015 34.0008L9.00154 34Z" fill="#FFB94F"/>
<path d="M7.00154 32L7.00073 33L8.00073 33.0008L8.00154 32.0008L7.00154 32Z" fill="#FFB94F"/>
<path d="M6.00154 31L6.00073 32L7.00073 32.0008L7.00154 31.0008L6.00154 31Z" fill="#FFB94F"/>
<path d="M5.00154 31L5.00073 32L6.00073 32.0008L6.00154 31.0008L5.00154 31Z" fill="#FFB94F"/>
<path d="M7.00154 31L7.00073 32L8.00073 32.0008L8.00154 31.0008L7.00154 31Z" fill="#FFB94F"/>
<path d="M5.00154 27L5.00073 28L6.00073 28.0008L6.00154 27.0008L5.00154 27Z" fill="#FFB94F"/>
<path d="M4.00154 27L4.00073 28L5.00073 28.0008L5.00154 27.0008L4.00154 27Z" fill="#FFB94F"/>
<path d="M6.00154 28L6.00073 29L7.00073 29.0008L7.00154 28.0008L6.00154 28Z" fill="#FFB94F"/>
<path d="M6.00154 27L6.00073 28L7.00073 28.0008L7.00154 27.0008L6.00154 27Z" fill="#FFB94F"/>
<path d="M4.00154 26L4.00073 27L5.00073 27.0008L5.00154 26.0008L4.00154 26Z" fill="#FFB94F"/>
<path d="M4.00154 25L4.00073 26L5.00073 26.0008L5.00154 25.0008L4.00154 25Z" fill="#FFB94F"/>
<path d="M23.0015 26L23.0007 27L24.0007 27.0008L24.0015 26.0008L23.0015 26Z" fill="#FFB94F"/>
<path d="M28.0015 24L28.0007 25L29.0007 25.0008L29.0015 24.0008L28.0015 24Z" fill="#FFB94F"/>
<path d="M27.0015 25L27.0007 26L28.0007 26.0008L28.0015 25.0008L27.0015 25Z" fill="#FFB94F"/>
<path d="M26.0015 25L26.0007 26L27.0007 26.0008L27.0015 25.0008L26.0015 25Z" fill="#FFB94F"/>
<path d="M16.0015 33L16.0007 34L17.0007 34.0008L17.0015 33.0008L16.0015 33Z" fill="#FFB94F"/>
<path d="M16.0015 32L16.0007 33L17.0007 33.0008L17.0015 32.0008L16.0015 32Z" fill="#FFB94F"/>
<path d="M17.0015 33L17.0007 34L18.0007 34.0008L18.0015 33.0008L17.0015 33Z" fill="#FFB94F"/>
<path d="M6.00154 35L6.00073 36L7.00073 36.0008L7.00154 35.0008L6.00154 35Z" fill="#FFB94F"/>
<path d="M5.00154 35L5.00073 36L6.00073 36.0008L6.00154 35.0008L5.00154 35Z" fill="#FFB94F"/>
<path d="M20.0015 33L20.0007 34L21.0007 34.0008L21.0015 33.0008L20.0015 33Z" fill="#FFB94F"/>
<path d="M22.0015 22L22.0007 23L23.0007 23.0008L23.0015 22.0008L22.0015 22Z" fill="#FFB94F"/>
<path d="M22.0015 21L22.0007 22L23.0007 22.0008L23.0015 21.0008L22.0015 21Z" fill="#FFB94F"/>
<path d="M23.0015 22L23.0007 23L24.0007 23.0008L24.0015 22.0008L23.0015 22Z" fill="#FFB94F"/>
<path d="M23.0015 24L23.0007 25L24.0007 25.0008L24.0015 24.0008L23.0015 24Z" fill="#FFB94F"/>
<path d="M8.00154 32L8.00073 33L9.00073 33.0008L9.00154 32.0008L8.00154 32Z" fill="#FFB94F"/>
<path d="M8.00154 33L8.00073 34L9.00073 34.0008L9.00154 33.0008L8.00154 33Z" fill="#FFB94F"/>
<path d="M4.00154 30L4.00073 31L5.00073 31.0008L5.00154 30.0008L4.00154 30Z" fill="#FFB94F"/>
<path d="M5.00154 32L5.00073 33L6.00073 33.0008L6.00154 32.0008L5.00154 32Z" fill="#FFB94F"/>
<path d="M8.00154 31L8.00073 32L9.00073 32.0008L9.00154 31.0008L8.00154 31Z" fill="#FFB94F"/>
<path d="M4.00154 32L4.00073 33L5.00073 33.0008L5.00154 32.0008L4.00154 32Z" fill="#FFB94F"/>
<path d="M4.00154 33L4.00073 34L5.00073 34.0008L5.00154 33.0008L4.00154 33Z" fill="#FFB94F"/>
<path d="M4.00154 34L4.00073 35L5.00073 35.0008L5.00154 34.0008L4.00154 34Z" fill="#FFB94F"/>
<path d="M4.00154 35L4.00073 36L5.00073 36.0008L5.00154 35.0008L4.00154 35Z" fill="#FFB94F"/>
<path d="M4.00154 31L4.00073 32L5.00073 32.0008L5.00154 31.0008L4.00154 31Z" fill="#FFB94F"/>
<path d="M23.0015 23L23.0007 24L24.0007 24.0008L24.0015 23.0008L23.0015 23Z" fill="#FFB94F"/>
<path d="M24.0015 24L24.0007 25L25.0007 25.0008L25.0015 24.0008L24.0015 24Z" fill="#FFB94F"/>
<path d="M25.0015 28L25.0007 29L26.0007 29.0008L26.0015 28.0008L25.0015 28Z" fill="#FFB94F"/>
<path d="M25.0015 27L25.0007 28L26.0007 28.0008L26.0015 27.0008L25.0015 27Z" fill="#FFB94F"/>
<path d="M26.0015 29L26.0007 30L27.0007 30.0008L27.0015 29.0008L26.0015 29Z" fill="#FFB94F"/>
<path d="M26.0015 28L26.0007 29L27.0007 29.0008L27.0015 28.0008L26.0015 28Z" fill="#FFB94F"/>
<path d="M27.0015 29L27.0007 30L28.0007 30.0008L28.0015 29.0008L27.0015 29Z" fill="#FFB94F"/>
<path d="M25.0015 26L25.0007 27L26.0007 27.0008L26.0015 26.0008L25.0015 26Z" fill="#FFB94F"/>
<path d="M24.0015 18L24.0007 19L25.0007 19.0008L25.0015 18.0008L24.0015 18Z" fill="#FFB94F"/>
<path d="M24.0015 17L24.0007 18L25.0007 18.0008L25.0015 17.0008L24.0015 17Z" fill="#FFB94F"/>
<path d="M25.0015 18L25.0007 19L26.0007 19.0008L26.0015 18.0008L25.0015 18Z" fill="#FFB94F"/>
<path d="M26.0015 18L26.0007 19L27.0007 19.0008L27.0015 18.0008L26.0015 18Z" fill="#FFB94F"/>
<path d="M19.0015 21L19.0007 22L20.0007 22.0008L20.0015 21.0008L19.0015 21Z" fill="#FFB94F"/>
<path d="M18.0015 22L18.0007 23L19.0007 23.0008L19.0015 22.0008L18.0015 22Z" fill="#FFB94F"/>
<path d="M24.0015 27L24.0007 28L25.0007 28.0008L25.0015 27.0008L24.0015 27Z" fill="#FFB94F"/>
<path d="M19.0015 27L19.0007 28L20.0007 28.0008L20.0015 27.0008L19.0015 27Z" fill="#FFB94F"/>
<path d="M15.0015 28L15.0007 29L16.0007 29.0008L16.0015 28.0008L15.0015 28Z" fill="#FFB94F"/>
<path d="M20.0015 21L20.0007 22L21.0007 22.0008L21.0015 21.0008L20.0015 21Z" fill="#FFB94F"/>
<path d="M21.0015 21L21.0007 22L22.0007 22.0008L22.0015 21.0008L21.0015 21Z" fill="#FFB94F"/>
<path d="M27.0015 18L27.0007 19L28.0007 19.0008L28.0015 18.0008L27.0015 18Z" fill="#FFB94F"/>
<path d="M28.0015 19L28.0007 20L29.0007 20.0008L29.0015 19.0008L28.0015 19Z" fill="#FFB94F"/>
<path d="M29.0015 20L29.0007 21L30.0007 21.0008L30.0015 20.0008L29.0015 20Z" fill="#FFB94F"/>
<path d="M29.0015 19L29.0007 20L30.0007 20.0008L30.0015 19.0008L29.0015 19Z" fill="#FFB94F"/>
<path d="M31.0015 14L31.0007 15L32.0007 15.0008L32.0015 14.0008L31.0015 14Z" fill="#FFB94F"/>
<path d="M32.0015 14L32.0007 15L33.0007 15.0008L33.0015 14.0008L32.0015 14Z" fill="#FFB94F"/>
<path d="M32.0015 15L32.0007 16L33.0007 16.0008L33.0015 15.0008L32.0015 15Z" fill="#FFB94F"/>
<path d="M33.0015 13L33.0007 14L34.0007 14.0008L34.0015 13.0008L33.0015 13Z" fill="#FFB94F"/>
<path d="M35.0015 14L35.0007 15L36.0007 15.0008L36.0015 14.0008L35.0015 14Z" fill="#FFB94F"/>
<path d="M34.0015 13L34.0007 14L35.0007 14.0008L35.0015 13.0008L34.0015 13Z" fill="#FFB94F"/>
<path d="M33.0015 14L33.0007 15L34.0007 15.0008L34.0015 14.0008L33.0015 14Z" fill="#FFB94F"/>
<path d="M31.0015 13L31.0007 14L32.0007 14.0008L32.0015 13.0008L31.0015 13Z" fill="#FFB94F"/>
<path d="M34.0015 14L34.0007 15L35.0007 15.0008L35.0015 14.0008L34.0015 14Z" fill="#FFB94F"/>
<path d="M35.0015 15L35.0007 16L36.0007 16.0008L36.0015 15.0008L35.0015 15Z" fill="#FFB94F"/>
<path d="M34.0015 12L34.0007 13L35.0007 13.0008L35.0015 12.0008L34.0015 12Z" fill="#FFB94F"/>
<path d="M35.0015 13L35.0007 14L36.0007 14.0008L36.0015 13.0008L35.0015 13Z" fill="#FFB94F"/>
<path d="M35.0015 12L35.0007 13L36.0007 13.0008L36.0015 12.0008L35.0015 12Z" fill="#FFB94F"/>
<path d="M31.0015 6L31.0007 7L32.0007 7.00081L32.0015 6.00081L31.0015 6Z" fill="#FFB94F"/>
<path d="M32.0015 6L32.0007 7L33.0007 7.00081L33.0015 6.00081L32.0015 6Z" fill="#FFB94F"/>
<path d="M33.0015 6L33.0007 7L34.0007 7.00081L34.0015 6.00081L33.0015 6Z" fill="#FFB94F"/>
<path d="M29.0015 7L29.0007 8L30.0007 8.00081L30.0015 7.00081L29.0015 7Z" fill="#FFB94F"/>
<path d="M24.0015 8L24.0007 9L25.0007 9.00081L25.0015 8.00081L24.0015 8Z" fill="#FFB94F"/>
<path d="M30.0015 7L30.0007 8L31.0007 8.00081L31.0015 7.00081L30.0015 7Z" fill="#FFB94F"/>
<path d="M35.0015 4L35.0007 5L36.0007 5.00081L36.0015 4.00081L35.0015 4Z" fill="#FFB94F"/>
<path d="M33.0015 5L33.0007 6L34.0007 6.00081L34.0015 5.00081L33.0015 5Z" fill="#FFB94F"/>
<path d="M34.0015 5L34.0007 6L35.0007 6.00081L35.0015 5.00081L34.0015 5Z" fill="#FFB94F"/>
<path d="M34.0015 4L34.0007 5L35.0007 5.00081L35.0015 4.00081L34.0015 4Z" fill="#FFB94F"/>
<path d="M31.0015 7L31.0007 8L32.0007 8.00081L32.0015 7.00081L31.0015 7Z" fill="#FFB94F"/>
<path d="M25.0015 11L25.0007 12L26.0007 12.0008L26.0015 11.0008L25.0015 11Z" fill="#FFB94F"/>
<path d="M26.0015 12L26.0007 13L27.0007 13.0008L27.0015 12.0008L26.0015 12Z" fill="#FFB94F"/>
<path d="M24.0015 19L24.0007 20L25.0007 20.0008L25.0015 19.0008L24.0015 19Z" fill="#FFB94F"/>
<path d="M23.0015 20L23.0007 21L24.0007 21.0008L24.0015 20.0008L23.0015 20Z" fill="#FFB94F"/>
<path d="M23.0015 19L23.0007 20L24.0007 20.0008L24.0015 19.0008L23.0015 19Z" fill="#FFB94F"/>
<path d="M22.0015 19L22.0007 20L23.0007 20.0008L23.0015 19.0008L22.0015 19Z" fill="#FFB94F"/>
<path d="M22.0015 20L22.0007 21L23.0007 21.0008L23.0015 20.0008L22.0015 20Z" fill="#FFB94F"/>
<path d="M21.0015 20L21.0007 21L22.0007 21.0008L22.0015 20.0008L21.0015 20Z" fill="#FFB94F"/>
<path d="M16.0015 22L16.0007 23L17.0007 23.0008L17.0015 22.0008L16.0015 22Z" fill="#FFB94F"/>
<path d="M17.0015 22L17.0007 23L18.0007 23.0008L18.0015 22.0008L17.0015 22Z" fill="#FFB94F"/>
<path d="M18.0015 21L18.0007 22L19.0007 22.0008L19.0015 21.0008L18.0015 21Z" fill="#FFB94F"/>
<path d="M21.0015 26L21.0007 27L22.0007 27.0008L22.0015 26.0008L21.0015 26Z" fill="#FFB94F"/>
<path d="M21.0015 27L21.0007 28L22.0007 28.0008L22.0015 27.0008L21.0015 27Z" fill="#FFB94F"/>
<path d="M19.0015 29L19.0007 30L20.0007 30.0008L20.0015 29.0008L19.0015 29Z" fill="#FFB94F"/>
<path d="M18.0015 30L18.0007 31L19.0007 31.0008L19.0015 30.0008L18.0015 30Z" fill="#FFB94F"/>
<path d="M20.0015 27L20.0007 28L21.0007 28.0008L21.0015 27.0008L20.0015 27Z" fill="#FFB94F"/>
<path d="M17.0015 34L17.0007 35L18.0007 35.0008L18.0015 34.0008L17.0015 34Z" fill="#FFB94F"/>
<path d="M16.0015 35L16.0007 36L17.0007 36.0008L17.0015 35.0008L16.0015 35Z" fill="#FFB94F"/>
<path d="M15.0015 31L15.0007 32L16.0007 32.0008L16.0015 31.0008L15.0015 31Z" fill="#FFB94F"/>
<path d="M15.0015 34L15.0007 35L16.0007 35.0008L16.0015 34.0008L15.0015 34Z" fill="#FFB94F"/>
<path d="M13.0015 26L13.0007 27L14.0007 27.0008L14.0015 26.0008L13.0015 26Z" fill="#FFB94F"/>
<path d="M26.0015 11L26.0007 12L27.0007 12.0008L27.0015 11.0008L26.0015 11Z" fill="#FFB94F"/>
<path d="M32.0015 19L32.0007 20L33.0007 20.0008L33.0015 19.0008L32.0015 19Z" fill="#FFB94F"/>
<path d="M32.0015 18L32.0007 19L33.0007 19.0008L33.0015 18.0008L32.0015 18Z" fill="#FFB94F"/>
<path d="M34.0015 28L34.0007 29L35.0007 29.0008L35.0015 28.0008L34.0015 28Z" fill="#FFB94F"/>
<path d="M35.0015 28L35.0007 29L36.0007 29.0008L36.0015 28.0008L35.0015 28Z" fill="#FFB94F"/>
<path d="M35.0015 33L35.0007 34L36.0007 34.0008L36.0015 33.0008L35.0015 33Z" fill="#FFB94F"/>
<path d="M35.0015 34L35.0007 35L36.0007 35.0008L36.0015 34.0008L35.0015 34Z" fill="#FFB94F"/>
<path d="M33.0015 35L33.0007 36L34.0007 36.0008L34.0015 35.0008L33.0015 35Z" fill="#FFB94F"/>
<path d="M24.0015 35L24.0007 36L25.0007 36.0008L25.0015 35.0008L24.0015 35Z" fill="#FFB94F"/>
<path d="M23.0015 34L23.0007 35L24.0007 35.0008L24.0015 34.0008L23.0015 34Z" fill="#FFB94F"/>
<path d="M22.0015 34L22.0007 35L23.0007 35.0008L23.0015 34.0008L22.0015 34Z" fill="#FFB94F"/>
<path d="M22.0015 33L22.0007 34L23.0007 34.0008L23.0015 33.0008L22.0015 33Z" fill="#FFB94F"/>
<path d="M25.0015 35L25.0007 36L26.0007 36.0008L26.0015 35.0008L25.0015 35Z" fill="#FFB94F"/>
<path d="M26.0015 35L26.0007 36L27.0007 36.0008L27.0015 35.0008L26.0015 35Z" fill="#FFB94F"/>
<path d="M27.0015 35L27.0007 36L28.0007 36.0008L28.0015 35.0008L27.0015 35Z" fill="#FFB94F"/>
<path d="M28.0015 35L28.0007 36L29.0007 36.0008L29.0015 35.0008L28.0015 35Z" fill="#FFB94F"/>
<path d="M25.0015 34L25.0007 35L26.0007 35.0008L26.0015 34.0008L25.0015 34Z" fill="#FFB94F"/>
<path d="M21.0015 33L21.0007 34L22.0007 34.0008L22.0015 33.0008L21.0015 33Z" fill="#FFB94F"/>
<path d="M18.0015 33L18.0007 34L19.0007 34.0008L19.0015 33.0008L18.0015 33Z" fill="#FFB94F"/>
<path d="M19.0015 33L19.0007 34L20.0007 34.0008L20.0015 33.0008L19.0015 33Z" fill="#FFB94F"/>
<path d="M17.0015 32L17.0007 33L18.0007 33.0008L18.0015 32.0008L17.0015 32Z" fill="#FFB94F"/>
<path d="M18.0023 32L18.0015 33L19.0015 33.0008L19.0023 32.0008L18.0023 32Z" fill="#FFB94F"/>
<path d="M15.0015 35L15.0007 36L16.0007 36.0008L16.0015 35.0008L15.0015 35Z" fill="#FFB94F"/>
<path d="M16.0023 34L16.0015 35L17.0015 35.0008L17.0023 34.0008L16.0023 34Z" fill="#FFB94F"/>
<path d="M16.0015 31L16.0007 32L17.0007 32.0008L17.0015 31.0008L16.0015 31Z" fill="#FFB94F"/>
<path d="M15.0015 30L15.0007 31L16.0007 31.0008L16.0015 30.0008L15.0015 30Z" fill="#FFB94F"/>
<path d="M16.0015 30L16.0007 31L17.0007 31.0008L17.0015 30.0008L16.0015 30Z" fill="#FFB94F"/>
<path d="M17.0015 30L17.0007 31L18.0007 31.0008L18.0015 30.0008L17.0015 30Z" fill="#FFB94F"/>
<path d="M18.0015 29L18.0007 30L19.0007 30.0008L19.0015 29.0008L18.0015 29Z" fill="#FFB94F"/>
<path d="M17.0015 29L17.0007 30L18.0007 30.0008L18.0015 29.0008L17.0015 29Z" fill="#FFB94F"/>
<path d="M18.0015 28L18.0007 29L19.0007 29.0008L19.0015 28.0008L18.0015 28Z" fill="#FFB94F"/>
<path d="M19.0015 28L19.0007 29L20.0007 29.0008L20.0015 28.0008L19.0015 28Z" fill="#FFB94F"/>
<path d="M20.0015 28L20.0007 29L21.0007 29.0008L21.0015 28.0008L20.0015 28Z" fill="#FFB94F"/>
<path d="M16.0015 29L16.0007 30L17.0007 30.0008L17.0015 29.0008L16.0015 29Z" fill="#FFB94F"/>
<path d="M15.0015 29L15.0007 30L16.0007 30.0008L16.0015 29.0008L15.0015 29Z" fill="#FFB94F"/>
<path d="M17.0023 31L17.0015 32L18.0015 32.0008L18.0023 31.0008L17.0023 31Z" fill="#FFB94F"/>
<path d="M35.0015 29L35.0007 30L36.0007 30.0008L36.0015 29.0008L35.0015 29Z" fill="#FFB94F"/>
<path d="M35.0015 35L35.0007 36L36.0007 36.0008L36.0015 35.0008L35.0015 35Z" fill="#FFB94F"/>
<path d="M34.0015 27L34.0007 28L35.0007 28.0008L35.0015 27.0008L34.0015 27Z" fill="#FFB94F"/>
<path d="M33.0015 27L33.0007 28L34.0007 28.0008L34.0015 27.0008L33.0015 27Z" fill="#FFB94F"/>
<path d="M35.0015 27L35.0007 28L36.0007 28.0008L36.0015 27.0008L35.0015 27Z" fill="#FFB94F"/>
<path d="M35.0015 26L35.0007 27L36.0007 27.0008L36.0015 26.0008L35.0015 26Z" fill="#FFB94F"/>
<path d="M35.0015 25L35.0007 26L36.0007 26.0008L36.0015 25.0008L35.0015 25Z" fill="#FFB94F"/>
<path d="M35.0015 24L35.0007 25L36.0007 25.0008L36.0015 24.0008L35.0015 24Z" fill="#FFB94F"/>
<path d="M32.0015 17L32.0007 18L33.0007 18.0008L33.0015 17.0008L32.0015 17Z" fill="#FFB94F"/>
<path d="M32.0015 16L32.0007 17L33.0007 17.0008L33.0015 16.0008L32.0015 16Z" fill="#FFB94F"/>
<path d="M10.0015 4L10.0007 5L11.0007 5.00081L11.0015 4.00081L10.0015 4Z" fill="#FFB94F"/>
<path d="M5.00154 4L5.00073 5L6.00073 5.00081L6.00154 4.00081L5.00154 4Z" fill="#FFB94F"/>
<path d="M4.00154 4L4.00073 5L5.00073 5.00081L5.00154 4.00081L4.00154 4Z" fill="#FFB94F"/>
<path d="M5.00154 11L5.00073 12L6.00073 12.0008L6.00154 11.0008L5.00154 11Z" fill="#FCB346"/>
<path d="M4.00154 11L4.00073 12L5.00073 12.0008L5.00154 11.0008L4.00154 11Z" fill="#FCB346"/>
<path d="M9.00154 13L9.00073 14L10.0007 14.0008L10.0015 13.0008L9.00154 13Z" fill="#FCB346"/>
<path d="M9.00154 14L9.00073 15L10.0007 15.0008L10.0015 14.0008L9.00154 14Z" fill="#FCB346"/>
<path d="M4.00154 13L4.00073 14L5.00073 14.0008L5.00154 13.0008L4.00154 13Z" fill="#FCB346"/>
<path d="M5.00154 15L5.00073 16L6.00073 16.0008L6.00154 15.0008L5.00154 15Z" fill="#FCB346"/>
<path d="M8.00154 13L8.00073 14L9.00073 14.0008L9.00154 13.0008L8.00154 13Z" fill="#FCB346"/>
<path d="M14.0015 20L14.0007 21L15.0007 21.0008L15.0015 20.0008L14.0015 20Z" fill="#FCB346"/>
<path d="M14.0015 21L14.0007 22L15.0007 22.0008L15.0015 21.0008L14.0015 21Z" fill="#FCB346"/>
<path d="M15.0015 21L15.0007 22L16.0007 22.0008L16.0015 21.0008L15.0015 21Z" fill="#FCB346"/>
<path d="M16.0015 21L16.0007 22L17.0007 22.0008L17.0015 21.0008L16.0015 21Z" fill="#FCB346"/>
<path d="M17.0015 21L17.0007 22L18.0007 22.0008L18.0015 21.0008L17.0015 21Z" fill="#FCB346"/>
<path d="M13.0015 20L13.0007 21L14.0007 21.0008L14.0015 20.0008L13.0015 20Z" fill="#FCB346"/>
<path d="M23.0015 32L23.0007 33L24.0007 33.0008L24.0015 32.0008L23.0015 32Z" fill="#FCB346"/>
<path d="M23.0015 33L23.0007 34L24.0007 34.0008L24.0015 33.0008L23.0015 33Z" fill="#FCB346"/>
<path d="M22.0015 32L22.0007 33L23.0007 33.0008L23.0015 32.0008L22.0015 32Z" fill="#FCB346"/>
<path d="M20.0015 20L20.0007 21L21.0007 21.0008L21.0015 20.0008L20.0015 20Z" fill="#FCB346"/>
<path d="M19.0015 20L19.0007 21L20.0007 21.0008L20.0015 20.0008L19.0015 20Z" fill="#FCB346"/>
<path d="M18.0015 20L18.0007 21L19.0007 21.0008L19.0015 20.0008L18.0015 20Z" fill="#FCB346"/>
<path d="M16.0015 13L16.0007 14L17.0007 14.0008L17.0015 13.0008L16.0015 13Z" fill="#FCB346"/>
<path d="M15.0015 13L15.0007 14L16.0007 14.0008L16.0015 13.0008L15.0015 13Z" fill="#FCB346"/>
<path d="M17.0015 14L17.0007 15L18.0007 15.0008L18.0015 14.0008L17.0015 14Z" fill="#FCB346"/>
<path d="M26.0015 16L26.0007 17L27.0007 17.0008L27.0015 16.0008L26.0015 16Z" fill="#FCB346"/>
<path d="M25.0015 13L25.0007 14L26.0007 14.0008L26.0015 13.0008L25.0015 13Z" fill="#FCB346"/>
<path d="M27.0015 17L27.0007 18L28.0007 18.0008L28.0015 17.0008L27.0015 17Z" fill="#FCB346"/>
<path d="M18.0015 15L18.0007 16L19.0007 16.0008L19.0015 15.0008L18.0015 15Z" fill="#FCB346"/>
<path d="M30.0015 11L30.0007 12L31.0007 12.0008L31.0015 11.0008L30.0015 11Z" fill="#FCB346"/>
<path d="M31.0015 12L31.0007 13L32.0007 13.0008L32.0015 12.0008L31.0015 12Z" fill="#FCB346"/>
<path d="M32.0015 13L32.0007 14L33.0007 14.0008L33.0015 13.0008L32.0015 13Z" fill="#FCB346"/>
<path d="M28.0015 4L28.0007 5L29.0007 5.00081L29.0015 4.00081L28.0015 4Z" fill="#FCB346"/>
<path d="M28.0015 5L28.0007 6L29.0007 6.00081L29.0015 5.00081L28.0015 5Z" fill="#FCB346"/>
<path d="M29.0015 6L29.0007 7L30.0007 7.00081L30.0015 6.00081L29.0015 6Z" fill="#FCB346"/>
<path d="M17.0015 12L17.0007 13L18.0007 13.0008L18.0015 12.0008L17.0015 12Z" fill="#FCB346"/>
<path d="M4.00154 18L4.00073 19L5.00073 19.0008L5.00154 18.0008L4.00154 18Z" fill="#FCB346"/>
<path d="M21.0015 19L21.0007 20L22.0007 20.0008L22.0015 19.0008L21.0015 19Z" fill="#FCB346"/>
<path d="M21.0015 25L21.0007 26L22.0007 26.0008L22.0015 25.0008L21.0015 25Z" fill="#FCB346"/>
<path d="M22.0015 24L22.0007 25L23.0007 25.0008L23.0015 24.0008L22.0015 24Z" fill="#FCB346"/>
<path d="M16.0015 14L16.0007 15L17.0007 15.0008L17.0015 14.0008L16.0015 14Z" fill="#FCB346"/>
<path d="M29.0015 21L29.0007 22L30.0007 22.0008L30.0015 21.0008L29.0015 21Z" fill="#FCB346"/>
<path d="M29.0015 22L29.0007 23L30.0007 23.0008L30.0015 22.0008L29.0015 22Z" fill="#FCB346"/>
<path d="M33.0015 12L33.0007 13L34.0007 13.0008L34.0015 12.0008L33.0015 12Z" fill="#FCB346"/>
<path d="M35.0015 11L35.0007 12L36.0007 12.0008L36.0015 11.0008L35.0015 11Z" fill="#FCB346"/>
<path d="M34.0015 10L34.0007 11L35.0007 11.0008L35.0015 10.0008L34.0015 10Z" fill="#FCB346"/>
<path d="M34.0015 9L34.0007 10L35.0007 10.0008L35.0015 9.00081L34.0015 9Z" fill="#FCB346"/>
<path d="M33.0015 8L33.0007 9L34.0007 9.00081L34.0015 8.00081L33.0015 8Z" fill="#FCB346"/>
<path d="M34.0015 16L34.0007 17L35.0007 17.0008L35.0015 16.0008L34.0015 16Z" fill="#FCB346"/>
<path d="M33.0015 16L33.0007 17L34.0007 17.0008L34.0015 16.0008L33.0015 16Z" fill="#FCB346"/>
<path d="M34.0015 17L34.0007 18L35.0007 18.0008L35.0015 17.0008L34.0015 17Z" fill="#FCB346"/>
<path d="M23.0015 17L23.0007 18L24.0007 18.0008L24.0015 17.0008L23.0015 17Z" fill="#FCB346"/>
<path d="M24.0015 16L24.0007 17L25.0007 17.0008L25.0015 16.0008L24.0015 16Z" fill="#FCB346"/>
<path d="M23.0015 18L23.0007 19L24.0007 19.0008L24.0015 18.0008L23.0015 18Z" fill="#FCB346"/>
<path d="M12.0015 19L12.0007 20L13.0007 20.0008L13.0015 19.0008L12.0015 19Z" fill="#FCB346"/>
<path d="M11.0015 18L11.0007 19L12.0007 19.0008L12.0015 18.0008L11.0015 18Z" fill="#FCB346"/>
<path d="M6.00154 11L6.00073 12L7.00073 12.0008L7.00154 11.0008L6.00154 11Z" fill="#FCB346"/>
<path d="M22.0015 7L22.0007 8L23.0007 8.00081L23.0015 7.00081L22.0015 7Z" fill="#FCB346"/>
<path d="M23.0015 7L23.0007 8L24.0007 8.00081L24.0015 7.00081L23.0015 7Z" fill="#FCB346"/>
<path d="M22.0015 8L22.0007 9L23.0007 9.00081L23.0015 8.00081L22.0015 8Z" fill="#FCB346"/>
<path d="M21.0015 8L21.0007 9L22.0007 9.00081L22.0015 8.00081L21.0015 8Z" fill="#FCB346"/>
<path d="M20.0015 8L20.0007 9L21.0007 9.00081L21.0015 8.00081L20.0015 8Z" fill="#FCB346"/>
<path d="M20.0015 8L20.0007 9L21.0007 9.00081L21.0015 8.00081L20.0015 8Z" fill="#FCB346"/>
<path d="M19.0015 8L19.0007 9L20.0007 9.00081L20.0015 8.00081L19.0015 8Z" fill="#FCB346"/>
<path d="M24.0015 6L24.0007 7L25.0007 7.00081L25.0015 6.00081L24.0015 6Z" fill="#FCB346"/>
<path d="M25.0015 6L25.0007 7L26.0007 7.00081L26.0015 6.00081L25.0015 6Z" fill="#FCB346"/>
<path d="M28.0015 9L28.0007 10L29.0007 10.0008L29.0015 9.00081L28.0015 9Z" fill="#FCB346"/>
<path d="M28.0015 7L28.0007 8L29.0007 8.00081L29.0015 7.00081L28.0015 7Z" fill="#FCB346"/>
<path d="M25.0015 9L25.0007 10L26.0007 10.0008L26.0015 9.00081L25.0015 9Z" fill="#FCB346"/>
<path d="M26.0015 10L26.0007 11L27.0007 11.0008L27.0015 10.0008L26.0015 10Z" fill="#FCB346"/>
<path d="M27.0015 10L27.0007 11L28.0007 11.0008L28.0015 10.0008L27.0015 10Z" fill="#FCB346"/>
<path d="M20.0015 9L20.0007 10L21.0007 10.0008L21.0015 9.00081L20.0015 9Z" fill="#FCB346"/>
<path d="M28.0015 23L28.0007 24L29.0007 24.0008L29.0015 23.0008L28.0015 23Z" fill="#FCB346"/>
<path d="M27.0015 23L27.0007 24L28.0007 24.0008L28.0015 23.0008L27.0015 23Z" fill="#FCB346"/>
<path d="M34.0015 26L34.0007 27L35.0007 27.0008L35.0015 26.0008L34.0015 26Z" fill="#FCB346"/>
<path d="M33.0015 26L33.0007 27L34.0007 27.0008L34.0015 26.0008L33.0015 26Z" fill="#FCB346"/>
<path d="M26.0015 23L26.0007 24L27.0007 24.0008L27.0015 23.0008L26.0015 23Z" fill="#FCB346"/>
<path d="M26.0015 24L26.0007 25L27.0007 25.0008L27.0015 24.0008L26.0015 24Z" fill="#FCB346"/>
<path d="M19.0015 9L19.0007 10L20.0007 10.0008L20.0015 9.00081L19.0015 9Z" fill="#FCB346"/>
<path d="M32.0015 5L32.0007 6L33.0007 6.00081L33.0015 5.00081L32.0015 5Z" fill="#FCB346"/>
<path d="M31.0015 5L31.0007 6L32.0007 6.00081L32.0015 5.00081L31.0015 5Z" fill="#FCB346"/>
<path d="M33.0015 4L33.0007 5L34.0007 5.00081L34.0015 4.00081L33.0015 4Z" fill="#FCB346"/>
<path d="M32.0015 4L32.0007 5L33.0007 5.00081L33.0015 4.00081L32.0015 4Z" fill="#FCB346"/>
<path d="M30.0015 5L30.0007 6L31.0007 6.00081L31.0015 5.00081L30.0015 5Z" fill="#FCB346"/>
<path d="M30.0015 6L30.0007 7L31.0007 7.00081L31.0015 6.00081L30.0015 6Z" fill="#FCB346"/>
<path d="M13.0015 12L13.0007 13L14.0007 13.0008L14.0015 12.0008L13.0015 12Z" fill="#FCB346"/>
<path d="M12.0015 12L12.0007 13L13.0007 13.0008L13.0015 12.0008L12.0015 12Z" fill="#FCB346"/>
<path d="M14.0015 11L14.0007 12L15.0007 12.0008L15.0015 11.0008L14.0015 11Z" fill="#FCB346"/>
<path d="M11.0015 11L11.0007 12L12.0007 12.0008L12.0015 11.0008L11.0015 11Z" fill="#FCB346"/>
<path d="M8.00154 17L8.00073 18L9.00073 18.0008L9.00154 17.0008L8.00154 17Z" fill="#FCB346"/>
<path d="M7.00154 17L7.00073 18L8.00073 18.0008L8.00154 17.0008L7.00154 17Z" fill="#FCB346"/>
<path d="M9.00154 17L9.00073 18L10.0007 18.0008L10.0015 17.0008L9.00154 17Z" fill="#FFB94F"/>
<path d="M10.0015 17L10.0007 18L11.0007 18.0008L11.0015 17.0008L10.0015 17Z" fill="#FFB94F"/>
<path d="M9.00154 18L9.00073 19L10.0007 19.0008L10.0015 18.0008L9.00154 18Z" fill="#FFB94F"/>
<path d="M10.0015 18L10.0007 19L11.0007 19.0008L11.0015 18.0008L10.0015 18Z" fill="#FFB94F"/>
<path d="M9.00154 19L9.00073 20L10.0007 20.0008L10.0015 19.0008L9.00154 19Z" fill="#FFB94F"/>
<path d="M10.0015 19L10.0007 20L11.0007 20.0008L11.0015 19.0008L10.0015 19Z" fill="#FFB94F"/>
<path d="M10.0015 16L10.0007 17L11.0007 17.0008L11.0015 16.0008L10.0015 16Z" fill="#FFB94F"/>
<path d="M11.0015 15L11.0007 16L12.0007 16.0008L12.0015 15.0008L11.0015 15Z" fill="#FFB94F"/>
<path d="M11.0015 12L11.0007 13L12.0007 13.0008L12.0015 12.0008L11.0015 12Z" fill="#FFB94F"/>
<path d="M10.0015 15L10.0007 16L11.0007 16.0008L11.0015 15.0008L10.0015 15Z" fill="#FFB94F"/>
<path d="M11.0015 20L11.0007 21L12.0007 21.0008L12.0015 20.0008L11.0015 20Z" fill="#FFB94F"/>
<path d="M11.0015 19L11.0007 20L12.0007 20.0008L12.0015 19.0008L11.0015 19Z" fill="#FFB94F"/>
<path d="M12.0015 21L12.0007 22L13.0007 22.0008L13.0015 21.0008L12.0015 21Z" fill="#FFB94F"/>
<path d="M12.0015 20L12.0007 21L13.0007 21.0008L13.0015 20.0008L12.0015 20Z" fill="#FFB94F"/>
<path d="M13.0015 22L13.0007 23L14.0007 23.0008L14.0015 22.0008L13.0015 22Z" fill="#FFB94F"/>
<path d="M13.0015 21L13.0007 22L14.0007 22.0008L14.0015 21.0008L13.0015 21Z" fill="#FFB94F"/>
<path d="M14.0015 24L14.0007 25L15.0007 25.0008L15.0015 24.0008L14.0015 24Z" fill="#FFB94F"/>
<path d="M14.0015 25L14.0007 26L15.0007 26.0008L15.0015 25.0008L14.0015 25Z" fill="#FFB94F"/>
<path d="M14.0015 23L14.0007 24L15.0007 24.0008L15.0015 23.0008L14.0015 23Z" fill="#FFB94F"/>
<path d="M15.0015 23L15.0007 24L16.0007 24.0008L16.0015 23.0008L15.0015 23Z" fill="#FFB94F"/>
<path d="M15.0015 22L15.0007 23L16.0007 23.0008L16.0015 22.0008L15.0015 22Z" fill="#FFB94F"/>
<path d="M14.0015 22L14.0007 23L15.0007 23.0008L15.0015 22.0008L14.0015 22Z" fill="#FFB94F"/>
<path d="M9.00154 16L9.00073 17L10.0007 17.0008L10.0015 16.0008L9.00154 16Z" fill="#FCB346"/>
<path d="M6.00154 16L6.00073 17L7.00073 17.0008L7.00154 16.0008L6.00154 16Z" fill="#FCB346"/>
<path d="M4.00154 23L4.00073 24L5.00073 24.0008L5.00154 23.0008L4.00154 23Z" fill="#FCB346"/>
<path d="M5.00154 25L5.00073 26L6.00073 26.0008L6.00154 25.0008L5.00154 25Z" fill="#FCB346"/>
<path d="M5.00154 24L5.00073 25L6.00073 25.0008L6.00154 24.0008L5.00154 24Z" fill="#FCB346"/>
<path d="M4.00154 24L4.00073 25L5.00073 25.0008L5.00154 24.0008L4.00154 24Z" fill="#FCB346"/>
<path d="M5.00154 26L5.00073 27L6.00073 27.0008L6.00154 26.0008L5.00154 26Z" fill="#FCB346"/>
<path d="M8.00154 27L8.00073 28L9.00073 28.0008L9.00154 27.0008L8.00154 27Z" fill="#FCB346"/>
<path d="M7.00154 27L7.00073 28L8.00073 28.0008L8.00154 27.0008L7.00154 27Z" fill="#FCB346"/>
<path d="M6.00154 26L6.00073 27L7.00073 27.0008L7.00154 26.0008L6.00154 26Z" fill="#FCB346"/>
<path d="M17.0015 28L17.0007 29L18.0007 29.0008L18.0015 28.0008L17.0015 28Z" fill="#FCB346"/>
<path d="M18.0015 27L18.0007 28L19.0007 28.0008L19.0015 27.0008L18.0015 27Z" fill="#FCB346"/>
<path d="M20.0015 26L20.0007 27L21.0007 27.0008L21.0015 26.0008L20.0015 26Z" fill="#FCB346"/>
<path d="M16.0015 28L16.0007 29L17.0007 29.0008L17.0015 28.0008L16.0015 28Z" fill="#FCB346"/>
<path d="M12.0015 26L12.0007 27L13.0007 27.0008L13.0015 26.0008L12.0015 26Z" fill="#FCB346"/>
<path d="M11.0015 26L11.0007 27L12.0007 27.0008L12.0015 26.0008L11.0015 26Z" fill="#FCB346"/>
<path d="M15.0015 27L15.0007 28L16.0007 28.0008L16.0015 27.0008L15.0015 27Z" fill="#FCB346"/>
<path d="M32.0015 25L32.0007 26L33.0007 26.0008L33.0015 25.0008L32.0015 25Z" fill="#FCB346"/>
<path d="M31.0015 24L31.0007 25L32.0007 25.0008L32.0015 24.0008L31.0015 24Z" fill="#FCB346"/>
<path d="M30.0015 19L30.0007 20L31.0007 20.0008L31.0015 19.0008L30.0015 19Z" fill="#FCB346"/>
<path d="M31.0015 19L31.0007 20L32.0007 20.0008L32.0015 19.0008L31.0015 19Z" fill="#FCB346"/>
<path d="M33.0015 20L33.0007 21L34.0007 21.0008L34.0015 20.0008L33.0015 20Z" fill="#FCB346"/>
<path d="M34.0015 20L34.0007 21L35.0007 21.0008L35.0015 20.0008L34.0015 20Z" fill="#FCB346"/>
<path d="M33.0015 19L33.0007 20L34.0007 20.0008L34.0015 19.0008L33.0015 19Z" fill="#FCB346"/>
<path d="M35.0015 19L35.0007 20L36.0007 20.0008L36.0015 19.0008L35.0015 19Z" fill="#FCB346"/>
<path d="M29.0015 18L29.0007 19L30.0007 19.0008L30.0015 18.0008L29.0015 18Z" fill="#FCB346"/>
<path d="M28.0015 18L28.0007 19L29.0007 19.0008L29.0015 18.0008L28.0015 18Z" fill="#FCB346"/>
<path d="M14.0015 26L14.0007 27L15.0007 27.0008L15.0015 26.0008L14.0015 26Z" fill="#FCB346"/>
<path d="M13.0015 25L13.0007 26L14.0007 26.0008L14.0015 25.0008L13.0015 25Z" fill="#FCB346"/>
<path d="M13.0015 24L13.0007 25L14.0007 25.0008L14.0015 24.0008L13.0015 24Z" fill="#FCB346"/>
<path d="M10.0015 27L10.0007 28L11.0007 28.0008L11.0015 27.0008L10.0015 27Z" fill="#FCB346"/>
<path d="M10.0015 26L10.0007 27L11.0007 27.0008L11.0015 26.0008L10.0015 26Z" fill="#FCB346"/>
<path d="M9.00154 27L9.00073 28L10.0007 28.0008L10.0015 27.0008L9.00154 27Z" fill="#FCB346"/>
<path d="M9.00154 33L9.00073 34L10.0007 34.0008L10.0015 33.0008L9.00154 33Z" fill="#FCB346"/>
<path d="M11.0015 35L11.0007 36L12.0007 36.0008L12.0015 35.0008L11.0015 35Z" fill="#FCB346"/>
<path d="M14.0015 35L14.0007 36L15.0007 36.0008L15.0015 35.0008L14.0015 35Z" fill="#FCB346"/>
<path d="M15.0015 33L15.0007 34L16.0007 34.0008L16.0015 33.0008L15.0015 33Z" fill="#FCB346"/>
<path d="M19.0015 32L19.0007 33L20.0007 33.0008L20.0015 32.0008L19.0015 32Z" fill="#FCB346"/>
<path d="M24.0015 34L24.0007 35L25.0007 35.0008L25.0015 34.0008L24.0015 34Z" fill="#FCB346"/>
<path d="M28.0015 35L28.0007 36L29.0007 36.0008L29.0015 35.0008L28.0015 35Z" fill="#FCB346"/>
<path d="M34.0015 35L34.0007 36L35.0007 36.0008L35.0015 35.0008L34.0015 35Z" fill="#FCB346"/>
<path d="M27.0015 27L27.0007 28L28.0007 28.0008L28.0015 27.0008L27.0015 27Z" fill="#FCB346"/>
<path d="M28.0015 28L28.0007 29L29.0007 29.0008L29.0015 28.0008L28.0015 28Z" fill="#FCB346"/>
<path d="M26.0015 27L26.0007 28L27.0007 28.0008L27.0015 27.0008L26.0015 27Z" fill="#FCB346"/>
<path d="M27.0015 28L27.0007 29L28.0007 29.0008L28.0015 28.0008L27.0015 28Z" fill="#FCB346"/>
<path d="M25.0015 24L25.0007 25L26.0007 25.0008L26.0015 24.0008L25.0015 24Z" fill="#FCB346"/>
<path d="M5.00154 34L5.00073 35L6.00073 35.0008L6.00154 34.0008L5.00154 34Z" fill="#FCB346"/>
<path d="M6.00154 34L6.00073 35L7.00073 35.0008L7.00154 34.0008L6.00154 34Z" fill="#FCB346"/>
<path d="M4.00154 29L4.00073 30L5.00073 30.0008L5.00154 29.0008L4.00154 29Z" fill="#FCB346"/>
<path d="M27.0015 34L27.0007 35L28.0007 35.0008L28.0015 34.0008L27.0015 34Z" fill="#FCB346"/>
<path d="M26.0015 34L26.0007 35L27.0007 35.0008L27.0015 34.0008L26.0015 34Z" fill="#FCB346"/>
<path d="M27.0015 35L27.0007 36L28.0007 36.0008L28.0015 35.0008L27.0015 35Z" fill="#FCB346"/>
<path d="M13.0015 4L13.0007 5L14.0007 5.00081L14.0015 4.00081L13.0015 4Z" fill="#FCB346"/>
<path d="M14.0015 4L14.0007 5L15.0007 5.00081L15.0015 4.00081L14.0015 4Z" fill="#FCB346"/>
<path d="M15.0015 5L15.0007 6L16.0007 6.00081L16.0015 5.00081L15.0015 5Z" fill="#FCB346"/>
<path d="M6.00073 5V6H5.00073V5H6.00073Z" fill="#6DB9F0"/>
<path d="M7.00073 5V6H6.00073V5H7.00073Z" fill="#6DB9F0"/>
<path d="M8.00073 6V7H7.00073V6H8.00073Z" fill="#6DB9F0"/>
<path d="M8.00073 7V8H7.00073V7H8.00073Z" fill="#6DB9F0"/>
<path d="M7.00073 8V9H6.00073V8H7.00073Z" fill="#6DB9F0"/>
<path d="M5.00073 7V8H4.00073V7H5.00073Z" fill="#6DB9F0"/>
<path d="M6.00073 8V9H5.00073V8H6.00073Z" fill="#6DB9F0"/>
<path d="M5.00073 6V7H4.00073V6H5.00073Z" fill="#6DB9F0"/>
<path d="M7.00073 6V7H6.00073V6H7.00073Z" fill="#6DB9F0"/>
<path d="M6.00073 7V8H5.00073V7H6.00073Z" fill="#6DB9F0"/>
<path d="M7.00073 7V8H6.00073V7H7.00073Z" fill="#6DB9F0"/>
<path d="M6.00073 6V7H5.00073V6H6.00073Z" fill="#B3D9FF"/>
<path d="M31.0007 25V26H32.0007V25H31.0007Z" fill="#6DB9F0"/>
<path d="M31.0007 26V27H32.0007V26H31.0007Z" fill="#82CBFF"/>
<path d="M30.0007 27V28H31.0007V27H30.0007Z" fill="#82CBFF"/>
<path d="M29.0007 26V27H30.0007V26H29.0007Z" fill="#82CBFF"/>
<path d="M30.0007 25V26H31.0007V25H30.0007Z" fill="#82CBFF"/>
<path d="M29.0007 27V28H30.0007V27H29.0007Z" fill="#6DB9F0"/>
<path d="M30.0007 28V29H31.0007V28H30.0007Z" fill="#6DB9F0"/>
<path d="M32.0007 27V28H33.0007V27H32.0007Z" fill="#6DB9F0"/>
<path d="M31.0007 28V29H32.0007V28H31.0007Z" fill="#6DB9F0"/>
<path d="M32.0007 26V27H33.0007V26H32.0007Z" fill="#6DB9F0"/>
<path d="M31.0007 27V28H32.0007V27H31.0007Z" fill="#6DB9F0"/>
<path d="M30.0007 26V27H31.0007V26H30.0007Z" fill="#B3D9FF"/>
<path d="M20.0007 34V35H21.0007V34H20.0007Z" fill="#6DB9F0"/>
<path d="M20.0007 35V36H21.0007V35H20.0007Z" fill="#82CBFF"/>
<path d="M19.0007 4V5H20.0007V4H19.0007Z" fill="#82CBFF"/>
<path d="M18.0007 35V36H19.0007V35H18.0007Z" fill="#82CBFF"/>
<path d="M19.0007 34V35H20.0007V34H19.0007Z" fill="#82CBFF"/>
<path d="M18.0007 4V5H19.0007V4H18.0007Z" fill="#6DB9F0"/>
<path d="M19.0007 5V6H20.0007V5H19.0007Z" fill="#6DB9F0"/>
<path d="M21.0007 4V5H22.0007V4H21.0007Z" fill="#6DB9F0"/>
<path d="M20.0007 5V6H21.0007V5H20.0007Z" fill="#6DB9F0"/>
<path d="M21.0007 35V36H22.0007V35H21.0007Z" fill="#6DB9F0"/>
<path d="M20.0007 4V5H21.0007V4H20.0007Z" fill="#6DB9F0"/>
<path d="M19.0007 35V36H20.0007V35H19.0007Z" fill="#B3D9FF"/>
<path d="M17.0007 19V20H18.0007V19H17.0007Z" fill="#6DB9F0"/>
<path d="M19.0007 20V21H20.0007V20H19.0007Z" fill="#82CBFF"/>
<path d="M18.0007 21V22H19.0007V21H18.0007Z" fill="#82CBFF"/>
<path d="M19.0007 21V22H20.0007V21H19.0007Z" fill="#82CBFF"/>
<path d="M16.0007 21V22H17.0007V21H16.0007Z" fill="#82CBFF"/>
<path d="M16.0007 22V23H17.0007V22H16.0007Z" fill="#82CBFF"/>
<path d="M18.0007 19V20H19.0007V19H18.0007Z" fill="#82CBFF"/>
<path d="M18.0007 18V19H19.0007V18H18.0007Z" fill="#82CBFF"/>
<path d="M15.0007 19V20H16.0007V19H15.0007Z" fill="#82CBFF"/>
<path d="M16.0007 19V20H17.0007V19H16.0007Z" fill="#82CBFF"/>
<path d="M17.0007 22V23H18.0007V22H17.0007Z" fill="#82CBFF"/>
<path d="M15.0007 20V21H16.0007V20H15.0007Z" fill="#82CBFF"/>
<path d="M17.0007 18V19H18.0007V18H17.0007Z" fill="#82CBFF"/>
<path d="M16.0007 20V21H17.0007V20H16.0007Z" fill="#6DB9F0"/>
<path d="M17.0007 21V22H18.0007V21H17.0007Z" fill="#6DB9F0"/>
<path d="M18.0007 20V21H19.0007V20H18.0007Z" fill="#6DB9F0"/>
<path d="M17.0007 20V21H18.0007V20H17.0007Z" fill="#B3D9FF"/>
<path d="M31.0007 13V14H32.0007V13H31.0007Z" fill="#6DB9F0"/>
<path d="M33.0007 14V15H34.0007V14H33.0007Z" fill="#82CBFF"/>
<path d="M32.0007 15V16H33.0007V15H32.0007Z" fill="#82CBFF"/>
<path d="M33.0007 15V16H34.0007V15H33.0007Z" fill="#82CBFF"/>
<path d="M30.0007 15V16H31.0007V15H30.0007Z" fill="#82CBFF"/>
<path d="M30.0007 16V17H31.0007V16H30.0007Z" fill="#82CBFF"/>
<path d="M32.0007 13V14H33.0007V13H32.0007Z" fill="#82CBFF"/>
<path d="M32.0007 12V13H33.0007V12H32.0007Z" fill="#82CBFF"/>
<path d="M29.0007 13V14H30.0007V13H29.0007Z" fill="#82CBFF"/>
<path d="M30.0007 13V14H31.0007V13H30.0007Z" fill="#82CBFF"/>
<path d="M31.0007 16V17H32.0007V16H31.0007Z" fill="#82CBFF"/>
<path d="M29.0007 14V15H30.0007V14H29.0007Z" fill="#82CBFF"/>
<path d="M31.0007 12V13H32.0007V12H31.0007Z" fill="#82CBFF"/>
<path d="M30.0007 14V15H31.0007V14H30.0007Z" fill="#6DB9F0"/>
<path d="M31.0007 15V16H32.0007V15H31.0007Z" fill="#6DB9F0"/>
<path d="M32.0007 14V15H33.0007V14H32.0007Z" fill="#6DB9F0"/>
<path d="M31.0007 14V15H32.0007V14H31.0007Z" fill="#B3D9FF"/>
<path d="M20.0015 7L20.0007 8L21.0007 8.00081L21.0015 7.00081L20.0015 7Z" fill="#FCA846"/>
<path d="M23.0015 7L23.0007 8L24.0007 8.00081L24.0015 7.00081L23.0015 7Z" fill="#FCA846"/>
<path d="M24.0015 6L24.0007 7L25.0007 7.00081L25.0015 6.00081L24.0015 6Z" fill="#FCA846"/>
<path d="M28.0015 7L28.0007 8L29.0007 8.00081L29.0015 7.00081L28.0015 7Z" fill="#FCA846"/>
<path d="M29.0015 6L29.0007 7L30.0007 7.00081L30.0015 6.00081L29.0015 6Z" fill="#FCA846"/>
<path d="M30.0015 5L30.0007 6L31.0007 6.00081L31.0015 5.00081L30.0015 5Z" fill="#FCA846"/>
<path d="M30.0015 6L30.0007 7L31.0007 7.00081L31.0015 6.00081L30.0015 6Z" fill="#FCA846"/>
<path d="M32.0015 7L32.0007 8L33.0007 8.00081L33.0015 7.00081L32.0015 7Z" fill="#FCA846"/>
<path d="M29.0015 7L29.0007 8L30.0007 8.00081L30.0015 7.00081L29.0015 7Z" fill="#FCA846"/>
<path d="M19.0015 6L19.0007 7L20.0007 7.00081L20.0015 6.00081L19.0015 6Z" fill="#FCA846"/>
<path d="M19.0015 7L19.0007 8L20.0007 8.00081L20.0015 7.00081L19.0015 7Z" fill="#FCA846"/>
<path d="M11.0015 6L11.0007 7L12.0007 7.00081L12.0015 6.00081L11.0015 6Z" fill="#FCA846"/>
<path d="M12.0015 7L12.0007 8L13.0007 8.00081L13.0015 7.00081L12.0015 7Z" fill="#FCA846"/>
<path d="M31.0011 6L31.0002 7L32.0002 7.00081L32.0011 6.00081L31.0011 6Z" fill="#FCA846"/>
<path d="M35.0015 7L35.0007 8L36.0007 8.00081L36.0015 7.00081L35.0015 7Z" fill="#FCA846"/>
<path d="M13.0015 7L13.0007 8L14.0007 8.00081L14.0015 7.00081L13.0015 7Z" fill="#FCA846"/>
<path d="M14.0015 7L14.0007 8L15.0007 8.00081L15.0015 7.00081L14.0015 7Z" fill="#FCA846"/>
<path d="M10.0015 7L10.0007 8L11.0007 8.00081L11.0015 7.00081L10.0015 7Z" fill="#FCA846"/>
<path d="M5.00154 7L5.00073 8L6.00073 8.00081L6.00154 7.00081L5.00154 7Z" fill="#FCA846"/>
<path d="M4.00154 6L4.00073 7L5.00073 7.00081L5.00154 6.00081L4.00154 6Z" fill="#FCA846"/>
<path d="M23.0015 6L23.0007 7L24.0007 7.00081L24.0015 6.00081L23.0015 6Z" fill="#FFB04F"/>
<path d="M21.0015 7L21.0007 8L22.0007 8.00081L22.0015 7.00081L21.0015 7Z" fill="#FFB04F"/>
<path d="M22.0015 7L22.0007 8L23.0007 8.00081L23.0015 7.00081L22.0015 7Z" fill="#FFB04F"/>
<path d="M28.0015 6L28.0007 7L29.0007 7.00081L29.0015 6.00081L28.0015 6Z" fill="#FFB04F"/>
<path d="M29.0015 5L29.0007 6L30.0007 6.00081L30.0015 5.00081L29.0015 5Z" fill="#FFB04F"/>
<path d="M35.0015 6L35.0007 7L36.0007 7.00081L36.0015 6.00081L35.0015 6Z" fill="#FFB04F"/>
<path d="M31.0015 5L31.0007 6L32.0007 6.00081L32.0015 5.00081L31.0015 5Z" fill="#FFB04F"/>
<path d="M32.0015 6L32.0007 7L33.0007 7.00081L33.0015 6.00081L32.0015 6Z" fill="#FFB04F"/>
<path d="M27.0015 7L27.0007 8L28.0007 8.00081L28.0015 7.00081L27.0015 7Z" fill="#FFB04F"/>
<path d="M34.0015 7L34.0007 8L35.0007 8.00081L35.0015 7.00081L34.0015 7Z" fill="#FFB04F"/>
<path d="M26.0015 7L26.0007 8L27.0007 8.00081L27.0015 7.00081L26.0015 7Z" fill="#FFB04F"/>
<path d="M25.0015 7L25.0007 8L26.0007 8.00081L26.0015 7.00081L25.0015 7Z" fill="#FFB04F"/>
<path d="M33.0015 7L33.0007 8L34.0007 8.00081L34.0015 7.00081L33.0015 7Z" fill="#FFB04F"/>
<path d="M16.0015 7L16.0007 8L17.0007 8.00081L17.0015 7.00081L16.0015 7Z" fill="#FFB04F"/>
<path d="M15.0015 7L15.0007 8L16.0007 8.00081L16.0015 7.00081L15.0015 7Z" fill="#FFB04F"/>
<path d="M13.0015 6L13.0007 7L14.0007 7.00081L14.0015 6.00081L13.0015 6Z" fill="#FFB04F"/>
<path d="M6.00154 7L6.00073 8L7.00073 8.00081L7.00154 7.00081L6.00154 7Z" fill="#FFB04F"/>
<path d="M5.00154 6L5.00073 7L6.00073 7.00081L6.00154 6.00081L5.00154 6Z" fill="#FFB04F"/>
<path d="M4.00154 5L4.00073 6L5.00073 6.00081L5.00154 5.00081L4.00154 5Z" fill="#FFB04F"/>
<path d="M12.0015 6L12.0007 7L13.0007 7.00081L13.0015 6.00081L12.0015 6Z" fill="#FFB04F"/>
<path d="M20.0015 6L20.0007 7L21.0007 7.00081L21.0015 6.00081L20.0015 6Z" fill="#FFB04F"/>
<path d="M9.00154 7L9.00073 8L10.0007 8.00081L10.0015 7.00081L9.00154 7Z" fill="#FFB04F"/>
<path d="M10.0015 6L10.0007 7L11.0007 7.00081L11.0015 6.00081L10.0015 6Z" fill="#FFB04F"/>
<path d="M8.00154 7L8.00073 8L9.00073 8.00081L9.00154 7.00081L8.00154 7Z" fill="#FFB04F"/>
<path d="M7.00154 7L7.00073 8L8.00073 8.00081L8.00154 7.00081L7.00154 7Z" fill="#FFB04F"/>
<path d="M17.0015 7L17.0007 8L18.0007 8.00081L18.0015 7.00081L17.0015 7Z" fill="#FFB04F"/>
<path d="M18.0015 6L18.0007 7L19.0007 7.00081L19.0015 6.00081L18.0015 6Z" fill="#FFB04F"/>
<path d="M13.0007 1V2H14.0007V1H13.0007Z" fill="#FEC859"/>
<path d="M14.0007 1V2H15.0007V1H14.0007Z" fill="#FEC859"/>
<path d="M15.0007 1V2H16.0007V1H15.0007Z" fill="#FEC859"/>
<path d="M16.0007 1V2H17.0007V1H16.0007Z" fill="#FEC859"/>
<path d="M15.0007 0V1H16.0007V0H15.0007Z" fill="#FEC859"/>
<path d="M16.0007 0V1H17.0007V0H16.0007Z" fill="#FEC859"/>
<path d="M17.0007 1V2H18.0007V1H17.0007Z" fill="#FEC859"/>
<path d="M18.0007 1V2H19.0007V1H18.0007Z" fill="#FEC859"/>
<path d="M15.0007 4V5H16.0007V4H15.0007Z" fill="#FEC859"/>
<path d="M16.0007 4V5H17.0007V4H16.0007Z" fill="#FEC859"/>
<path d="M17.0007 4V5H18.0007V4H17.0007Z" fill="#FEC859"/>
<path d="M18.0007 4V5H19.0007V4H18.0007Z" fill="#FEC859"/>
<path d="M20.0007 1V2H21.0007V1H20.0007Z" fill="#FEC859"/>
<path d="M22.0007 1V2H23.0007V1H22.0007Z" fill="#FEC859"/>
<path d="M21.0007 1V2H22.0007V1H21.0007Z" fill="#FEC859"/>
<path d="M23.0007 4V5H24.0007V4H23.0007Z" fill="#FEC859"/>
<path d="M24.0007 5V6H25.0007V5H24.0007Z" fill="#FEC859"/>
<path d="M24.0007 4V5H25.0007V4H24.0007Z" fill="#FEC859"/>
<path d="M22.0007 0V1H23.0007V0H22.0007Z" fill="#FEC859"/>
<path d="M26.0007 0V1H27.0007V0H26.0007Z" fill="#FEC859"/>
<path d="M25.0007 1V2H26.0007V1H25.0007Z" fill="#FEC859"/>
<path d="M25.0007 4V5H26.0007V4H25.0007Z" fill="#FEC859"/>
<path d="M27.0007 5V6H28.0007V5H27.0007Z" fill="#FEC859"/>
<path d="M28.0007 4V5H29.0007V4H28.0007Z" fill="#FEC859"/>
<path d="M29.0007 4V5H30.0007V4H29.0007Z" fill="#FEC859"/>
<path d="M29.0007 1V2H30.0007V1H29.0007Z" fill="#FEC859"/>
<path d="M32.0007 4V5H33.0007V4H32.0007Z" fill="#FEC859"/>
<path d="M34.0007 1V2H35.0007V1H34.0007Z" fill="#FEC859"/>
<path d="M35.0007 5V6H36.0007V5H35.0007Z" fill="#FEC859"/>
<path d="M35.0007 4V5H36.0007V4H35.0007Z" fill="#FEC859"/>
<path d="M35.0007 1V2H36.0007V1H35.0007Z" fill="#FEC859"/>
<path d="M34.0007 0V1H35.0007V0H34.0007Z" fill="#FEC859"/>
<path d="M33.0007 0V1H34.0007V0H33.0007Z" fill="#FEC859"/>
<path d="M32.0007 1V2H33.0007V1H32.0007Z" fill="#FEC859"/>
<path d="M31.0007 4V5H32.0007V4H31.0007Z" fill="#FEC859"/>
<path d="M33.0007 1V2H34.0007V1H33.0007Z" fill="#FEC859"/>
<path d="M34.0007 5V6H35.0007V5H34.0007Z" fill="#FEC859"/>
<path d="M34.0007 4V5H35.0007V4H34.0007Z" fill="#FEC859"/>
<path d="M33.0007 4V5H34.0007V4H33.0007Z" fill="#FEC859"/>
<path d="M32.0007 3V4H33.0007V3H32.0007Z" fill="#FEC859"/>
<path d="M35.0007 3V4H36.0007V3H35.0007Z" fill="#FEC859"/>
<path d="M31.0007 3V4H32.0007V3H31.0007Z" fill="#FEC859"/>
<path d="M34.0007 3V4H35.0007V3H34.0007Z" fill="#FEC859"/>
<path d="M33.0007 3V4H34.0007V3H33.0007Z" fill="#FEC859"/>
<path d="M32.0007 2V3H33.0007V2H32.0007Z" fill="#FEC859"/>
<path d="M35.0007 2V3H36.0007V2H35.0007Z" fill="#FEC859"/>
<path d="M31.0007 2V3H32.0007V2H31.0007Z" fill="#FEC859"/>
<path d="M30.0007 4V5H31.0007V4H30.0007Z" fill="#FEC859"/>
<path d="M30.0007 3V4H31.0007V3H30.0007Z" fill="#FEC859"/>
<path d="M30.0007 2V3H31.0007V2H30.0007Z" fill="#FEC859"/>
<path d="M34.0007 2V3H35.0007V2H34.0007Z" fill="#FEC859"/>
<path d="M33.0007 2V3H34.0007V2H33.0007Z" fill="#FEC859"/>
<path d="M33.0007 5V6H34.0007V5H33.0007Z" fill="#FEC859"/>
<path d="M28.0007 0V1H29.0007V0H28.0007Z" fill="#FEC859"/>
<path d="M27.0007 0V1H28.0007V0H27.0007Z" fill="#FEC859"/>
<path d="M26.0007 1V2H27.0007V1H26.0007Z" fill="#FEC859"/>
<path d="M28.0007 1V2H29.0007V1H28.0007Z" fill="#FEC859"/>
<path d="M27.0007 1V2H28.0007V1H27.0007Z" fill="#FEC859"/>
<path d="M26.0007 4V5H27.0007V4H26.0007Z" fill="#FEC859"/>
<path d="M27.0007 4V5H28.0007V4H27.0007Z" fill="#FEC859"/>
<path d="M25.0007 5V6H26.0007V5H25.0007Z" fill="#FEC859"/>
<path d="M26.0007 5V6H27.0007V5H26.0007Z" fill="#FEC859"/>
<path d="M23.0007 1V2H24.0007V1H23.0007Z" fill="#FEC859"/>
<path d="M20.0007 4V5H21.0007V4H20.0007Z" fill="#FEC859"/>
<path d="M21.0007 0V1H22.0007V0H21.0007Z" fill="#FEC859"/>
<path d="M22.0007 5V6H23.0007V5H22.0007Z" fill="#FEC859"/>
<path d="M22.0007 4V5H23.0007V4H22.0007Z" fill="#FEC859"/>
<path d="M21.0007 4V5H22.0007V4H21.0007Z" fill="#FEC859"/>
<path d="M23.0007 3V4H24.0007V3H23.0007Z" fill="#FEC859"/>
<path d="M24.0007 3V4H25.0007V3H24.0007Z" fill="#FEC859"/>
<path d="M25.0007 3V4H26.0007V3H25.0007Z" fill="#FEC859"/>
<path d="M28.0007 3V4H29.0007V3H28.0007Z" fill="#FEC859"/>
<path d="M29.0007 3V4H30.0007V3H29.0007Z" fill="#FEC859"/>
<path d="M26.0007 3V4H27.0007V3H26.0007Z" fill="#FEC859"/>
<path d="M27.0007 3V4H28.0007V3H27.0007Z" fill="#FEC859"/>
<path d="M20.0007 3V4H21.0007V3H20.0007Z" fill="#FEC859"/>
<path d="M22.0007 3V4H23.0007V3H22.0007Z" fill="#FEC859"/>
<path d="M21.0007 3V4H22.0007V3H21.0007Z" fill="#FEC859"/>
<path d="M23.0007 2V3H24.0007V2H23.0007Z" fill="#FEC859"/>
<path d="M24.0007 2V3H25.0007V2H24.0007Z" fill="#FEC859"/>
<path d="M25.0007 2V3H26.0007V2H25.0007Z" fill="#FEC859"/>
<path d="M28.0007 2V3H29.0007V2H28.0007Z" fill="#FEC859"/>
<path d="M29.0007 2V3H30.0007V2H29.0007Z" fill="#FEC859"/>
<path d="M26.0007 2V3H27.0007V2H26.0007Z" fill="#FEC859"/>
<path d="M27.0007 2V3H28.0007V2H27.0007Z" fill="#FEC859"/>
<path d="M20.0007 2V3H21.0007V2H20.0007Z" fill="#FEC859"/>
<path d="M19.0007 2V3H20.0007V2H19.0007Z" fill="#FEC859"/>
<path d="M19.0007 5V6H20.0007V5H19.0007Z" fill="#FEC859"/>
<path d="M19.0007 4V5H20.0007V4H19.0007Z" fill="#FEC859"/>
<path d="M19.0007 3V4H20.0007V3H19.0007Z" fill="#FEC859"/>
<path d="M11.0007 2V3H12.0007V2H11.0007Z" fill="#FEC859"/>
<path d="M12.0007 2V3H13.0007V2H12.0007Z" fill="#FEC859"/>
<path d="M11.0007 5V6H12.0007V5H11.0007Z" fill="#FEC859"/>
<path d="M11.0007 4V5H12.0007V4H11.0007Z" fill="#FEC859"/>
<path d="M11.0007 3V4H12.0007V3H11.0007Z" fill="#FEC859"/>
<path d="M22.0007 2V3H23.0007V2H22.0007Z" fill="#FEC859"/>
<path d="M21.0007 2V3H22.0007V2H21.0007Z" fill="#FEC859"/>
<path d="M18.0007 5V6H19.0007V5H18.0007Z" fill="#FEC859"/>
<path d="M16.0007 5V6H17.0007V5H16.0007Z" fill="#FEC859"/>
<path d="M17.0007 5V6H18.0007V5H17.0007Z" fill="#FEC859"/>
<path d="M17.0007 6V7H18.0007V6H17.0007Z" fill="#FEC859"/>
<path d="M13.0007 4V5H14.0007V4H13.0007Z" fill="#FEC859"/>
<path d="M14.0007 4V5H15.0007V4H14.0007Z" fill="#FEC859"/>
<path d="M15.0007 3V4H16.0007V3H15.0007Z" fill="#FEC859"/>
<path d="M16.0007 3V4H17.0007V3H16.0007Z" fill="#FEC859"/>
<path d="M17.0007 3V4H18.0007V3H17.0007Z" fill="#FEC859"/>
<path d="M18.0007 3V4H19.0007V3H18.0007Z" fill="#FEC859"/>
<path d="M18.0007 2V3H19.0007V2H18.0007Z" fill="#FEC859"/>
<path d="M13.0007 3V4H14.0007V3H13.0007Z" fill="#FEC859"/>
<path d="M14.0007 3V4H15.0007V3H14.0007Z" fill="#FEC859"/>
<path d="M15.0007 2V3H16.0007V2H15.0007Z" fill="#FEC859"/>
<path d="M16.0007 2V3H17.0007V2H16.0007Z" fill="#FEC859"/>
<path d="M17.0007 2V3H18.0007V2H17.0007Z" fill="#FEC859"/>
<path d="M13.0007 2V3H14.0007V2H13.0007Z" fill="#FEC859"/>
<path d="M14.0007 2V3H15.0007V2H14.0007Z" fill="#FEC859"/>
<path d="M12.0007 3V4H13.0007V3H12.0007Z" fill="#FEC859"/>
<path d="M10.0007 5V6H11.0007V5H10.0007Z" fill="#FEC859"/>
<path d="M10.0007 4V5H11.0007V4H10.0007Z" fill="#FEC859"/>
<path d="M9.00073 1V2H10.0007V1H9.00073Z" fill="#FEC859"/>
<path d="M8.00073 1V2H9.00073V1H8.00073Z" fill="#FEC859"/>
<path d="M7.00073 0V1H8.00073V0H7.00073Z" fill="#FEC859"/>
<path d="M5.00073 0V1H6.00073V0H5.00073Z" fill="#FEC859"/>
<path d="M4.00073 1V2H5.00073V1H4.00073Z" fill="#FEC859"/>
<path d="M4.00073 4V5H5.00073V4H4.00073Z" fill="#FEC859"/>
<path d="M5.00073 1V2H6.00073V1H5.00073Z" fill="#FEC859"/>
<path d="M6.00073 4V5H7.00073V4H6.00073Z" fill="#FEC859"/>
<path d="M8.00073 4V5H9.00073V4H8.00073Z" fill="#FEC859"/>
<path d="M9.00073 4V5H10.0007V4H9.00073Z" fill="#FEC859"/>
<path d="M7.00073 4V5H8.00073V4H7.00073Z" fill="#FEC859"/>
<path d="M9.00073 6V7H10.0007V6H9.00073Z" fill="#FEC859"/>
<path d="M9.00073 5V6H10.0007V5H9.00073Z" fill="#FEC859"/>
<path d="M7.00073 5V6H8.00073V5H7.00073Z" fill="#FEC859"/>
<path d="M8.00073 5V6H9.00073V5H8.00073Z" fill="#FEC859"/>
<path d="M6.00073 5V6H7.00073V5H6.00073Z" fill="#FEC859"/>
<path d="M7.00073 1V2H8.00073V1H7.00073Z" fill="#FEC859"/>
<path d="M6.00073 1V2H7.00073V1H6.00073Z" fill="#FEC859"/>
<path d="M5.00073 4V5H6.00073V4H5.00073Z" fill="#FEC859"/>
<path d="M10.0007 3V4H11.0007V3H10.0007Z" fill="#FEC859"/>
<path d="M4.00073 3V4H5.00073V3H4.00073Z" fill="#FEC859"/>
<path d="M6.00073 3V4H7.00073V3H6.00073Z" fill="#FEC859"/>
<path d="M8.00073 3V4H9.00073V3H8.00073Z" fill="#FEC859"/>
<path d="M9.00073 3V4H10.0007V3H9.00073Z" fill="#FEC859"/>
<path d="M7.00073 3V4H8.00073V3H7.00073Z" fill="#FEC859"/>
<path d="M5.00073 3V4H6.00073V3H5.00073Z" fill="#FEC859"/>
<path d="M10.0007 2V3H11.0007V2H10.0007Z" fill="#FEC859"/>
<path d="M4.00073 2V3H5.00073V2H4.00073Z" fill="#FEC859"/>
<path d="M6.00073 2V3H7.00073V2H6.00073Z" fill="#FEC859"/>
<path d="M8.00073 2V3H9.00073V2H8.00073Z" fill="#FEC859"/>
<path d="M9.00073 2V3H10.0007V2H9.00073Z" fill="#FEC859"/>
<path d="M7.00073 2V3H8.00073V2H7.00073Z" fill="#FEC859"/>
<path d="M5.00073 2V3H6.00073V2H5.00073Z" fill="#FEC859"/>
<path d="M6.00073 0V1H7.00073V0H6.00073Z" fill="#FEC859"/>
<path d="M32.0007 5V6H33.0007V5H32.0007Z" fill="#F0E091"/>
<path d="M33.0007 6V7H34.0007V6H33.0007Z" fill="#F0E091"/>
<path d="M34.0007 6V7H35.0007V6H34.0007Z" fill="#F0E091"/>
<path d="M21.0007 6V7H22.0007V6H21.0007Z" fill="#F0E091"/>
<path d="M21.0007 5V6H22.0007V5H21.0007Z" fill="#F0E091"/>
<path d="M22.0007 6V7H23.0007V6H22.0007Z" fill="#F0E091"/>
<path d="M23.0007 5V6H24.0007V5H23.0007Z" fill="#F0E091"/>
<path d="M16.0007 6V7H17.0007V6H16.0007Z" fill="#F0E091"/>
<path d="M15.0007 6V7H16.0007V6H15.0007Z" fill="#F0E091"/>
<path d="M14.0007 6V7H15.0007V6H14.0007Z" fill="#F0E091"/>
<path d="M20.0007 5V6H21.0007V5H20.0007Z" fill="#F0E091"/>
<path d="M13.0007 5V6H14.0007V5H13.0007Z" fill="#F0E091"/>
<path d="M8.00073 6V7H9.00073V6H8.00073Z" fill="#F0E091"/>
<path d="M7.00073 6V7H8.00073V6H7.00073Z" fill="#F0E091"/>
<path d="M6.00073 6V7H7.00073V6H6.00073Z" fill="#F0E091"/>
<path d="M5.00073 5V6H6.00073V5H5.00073Z" fill="#F0E091"/>
<path d="M12.0007 5V6H13.0007V5H12.0007Z" fill="#F0E091"/>
<path d="M15.0007 5V6H16.0007V5H15.0007Z" fill="#F0E091"/>
<path d="M14.0007 5V6H15.0007V5H14.0007Z" fill="#F0E091"/>
<path d="M12.0007 4V5H13.0007V4H12.0007Z" fill="#F0E091"/>
<path d="M28.0007 5V6H29.0007V5H28.0007Z" fill="#F0E091"/>
<path d="M26.0007 6V7H27.0007V6H26.0007Z" fill="#F0E091"/>
<path d="M25.0007 6V7H26.0007V6H25.0007Z" fill="#F0E091"/>
<path d="M27.0007 6V7H28.0007V6H27.0007Z" fill="#F0E091"/>
<path d="M3.00073 6V7H2.00073V6H3.00073Z" fill="#F0E091"/>
<path d="M1.00073 4V5H0.000732422V4H1.00073Z" fill="#F0E091"/>
<path d="M2.00073 5V6H1.00073V5H2.00073Z" fill="#F0E091"/>
<path d="M3.00073 5H2.00073V4H3.00073V5Z" fill="#FEC859"/>
<path d="M2.00073 5H1.00073V4H2.00073V5Z" fill="#FEC859"/>
<path d="M1.00073 4H0.000732422L0.000732422 3H1.00073V4Z" fill="#FEC859"/>
<path d="M2.00073 4H1.00073V3H2.00073V4Z" fill="#FEC859"/>
<path d="M3.00073 3H2.00073V2H3.00073V3Z" fill="#FEC859"/>
<path d="M2.00073 3H1.00073V2H2.00073V3Z" fill="#FEC859"/>
<path d="M4.00073 3H3.00073V2H4.00073V3Z" fill="#FEC859"/>
<path d="M5.00073 3H4.00073V2H5.00073V3Z" fill="#FEC859"/>
<path d="M6.00073 4H5.00073V3H6.00073V4Z" fill="#FEC859"/>
<path d="M7.00073 4H6.00073V3H7.00073V4Z" fill="#FEC859"/>
<path d="M7.00073 5H6.00073V4H7.00073V5Z" fill="#FEC859"/>
<path d="M6.00073 3H5.00073V2H6.00073V3Z" fill="#FEC859"/>
<path d="M6.00073 2H5.00073V1H6.00073V2Z" fill="#FEC859"/>
<path d="M5.00073 2H4.00073V1H5.00073V2Z" fill="#FEC859"/>
<path d="M4.00073 2H3.00073V1H4.00073V2Z" fill="#FEC859"/>
<path d="M6.00073 5H5.00073V4H6.00073V5Z" fill="#FEC859"/>
<path d="M5.00073 6H4.00073V5H5.00073V6Z" fill="#FEC859"/>
<path d="M6.00073 6H5.00073V5H6.00073V6Z" fill="#FEC859"/>
<path d="M3.00073 6H2.00073V5H3.00073V6Z" fill="#FEC859"/>
<path d="M4.00073 6H3.00073V5H4.00073V6Z" fill="#FEC859"/>
<path d="M5.00073 8H4.00073V7H5.00073V8Z" fill="#FEC859"/>
<path d="M5.00073 7H4.00073V6H5.00073V7Z" fill="#FEC859"/>
<path d="M4.00073 7H3.00073V6H4.00073V7Z" fill="#FEC859"/>
<path d="M6.00073 7H5.00073V6H6.00073V7Z" fill="#FEC859"/>
<path d="M6.00073 6H5.00073V5H6.00073V6Z" fill="#FEC859"/>
<path d="M6.00073 7H5.00073V6H6.00073V7Z" fill="#FEC859"/>
<path d="M3.00073 4H2.00073V3H3.00073V4Z" fill="#FEC859"/>
<path d="M5.00073 5H4.00073V4H5.00073V5Z" fill="#FEC859"/>
<path d="M4.00073 5H3.00073V4H4.00073V5Z" fill="#FEC859"/>
<path d="M4.00073 4H3.00073V3H4.00073V4Z" fill="#FEC859"/>
<path d="M5.00073 4H4.00073V3H5.00073V4Z" fill="#FEC859"/>
<path d="M0.99992 5L1.00073 6L0.00073278 6.00081L-7.92621e-05 5.00081L0.99992 5Z" fill="#FCA846"/>
<path d="M1.99992 6L2.00073 7L1.00073 7.00081L0.999921 6.00081L1.99992 6Z" fill="#FCA846"/>
<path d="M3.99992 7L4.00073 8L3.00073 8.00081L2.99992 7.00081L3.99992 7Z" fill="#FCA846"/>
<path d="M2.99992 7L3.00073 8L2.00073 8.00081L1.99992 7.00081L2.99992 7Z" fill="#FCA846"/>
</svg>
